<svg id="Layer_1" data-name="Layer 1" xmlns="http://www.w3.org/2000/svg" viewBox="0 0 1151.28 332.08"><defs><style>.cls-1{fill:#3ca7fd;}.cls-2{fill:#9d4748;}.cls-3{fill:#a7844a;}.cls-4{fill:#ac8956;}.cls-5{fill:#52b148;}.cls-6{fill:#d5b249;}.cls-7{fill:#9c49b3;}.cls-8{fill:#7c292d;}.cls-9{fill:#5fa685;}.cls-10{fill:#ec42f5;}.cls-11{fill:#e5f175;}.cls-12{fill:#96a5ae;}.cls-13{fill:#9a9a9a;}.cls-14{fill:#9ab0b2;}.cls-15{fill:#2f8dfd;}.cls-16{fill:#399efd;}.cls-17{fill:#71fd5b;}.cls-18{fill:#dae6ec;}.cls-19{fill:#8da8b9;}.cls-20{fill:#963035;}.cls-21{fill:#691902;}.cls-22{fill:#a18144;}.cls-23{fill:#9ea9ac;}.cls-24{fill:#6dfd49;}.cls-25{fill:#4f941f;}.cls-26{fill:#479b44;}.cls-27{fill:#64fb1f;}.cls-28{fill:#2d292a;}.cls-29{fill:#717171;}.cls-30{font-size:118.81px;font-family:HelveticaNeue-Medium, Helvetica Neue;letter-spacing:0.03em;}.cls-30,.cls-33{fill:#fff;}.cls-31,.cls-32{font-family:HelveticaNeue-Thin, Helvetica Neue;}.cls-31{letter-spacing:-0.02em;}.cls-33{font-size:108.48px;font-family:HelveticaNeue-UltraLight, Helvetica Neue;letter-spacing:0.62em;}</style></defs><title>Artboard 1</title><path class="cls-1" d="M198,88.23a29.84,29.84,0,0,1,16.18,5.11c7.92,5,16.64,8.83,24.87,13.42,9,5,17.86,10.25,26.66,15.59,8.38,5.08,16.74,10.23,24.86,15.71,13.39,9,26,19,37.08,30.91,6.4,6.88,6.79,10.22,2,18.3a43.58,43.58,0,0,1-3.72,5.31c-7.14,8.69-15.93,15.45-25.4,21.35-4,2.5-8.27,4.64-12.42,6.95a34.5,34.5,0,0,0-4.3,1.74,7.47,7.47,0,0,1-7.74,0c-.08-.56-.15-1.12-.22-1.68-.44-1.11-.61-2.47-1.37-3.27a28.61,28.61,0,0,0-4.15-3.11c-.28-5.76-3.18-7.46-9.87-5.76l-9.4-4.81c1-1.73,1.64-3.94,3.1-5.11,5.11-4.07,10.52-7.77,15.78-11.65a4.86,4.86,0,0,1,4.59-.66c1.48.36,3.43-.64,4.95-1.45.46-.24.13-1.88.25-2.87.39-3.15-1.51-6.72,2-9.33.58-.44.23-2.3.1-3.48-.35-3.17-5.12-4.83-3.1-8.9.08-.17-.77-.76-1.14-1.2a5.56,5.56,0,0,1-1.35-1.85c-1.28-5.27-4.95-8.84-8.51-12.56a38.66,38.66,0,0,1-3.57-4.81c-.72-1-1.08-2.56-2.05-3.19-6.75-4.42-13.67-8.59-20.44-13-2.66-1.73-5-3.93-7.59-5.8s-5.6-3.57-8.2-5.61a81.77,81.77,0,0,1-6-5.66v15.38c-1,2.56-2,5.11-3,7.67a24.43,24.43,0,0,1-1.82-2.4c-1.38-2.34-2.63-4.76-4-7.1-.85-1.42-1.85-2.75-2.78-4.12-.18-1.77-.27-3.55-.53-5.31a44,44,0,0,0-8-20l11.42,3.22c-3.56-3.86-7.89-3.94-12.06-4.45Zm13.42,7.57.57.26-.21-.63-.83-.66C211.14,95.11,211.29,95.46,211.45,95.8Z"/><path class="cls-2" d="M40.28,117l1.83-1c-5.37-3.31-5.91-5.12-3.35-11,3.83-8.72,9.82-15.85,17-21.91C77.26,65,102,52.71,128.2,43c2.19-.82,4.42-1.53,6.63-2.29,3.32.6,6.62,1.34,9.95,1.76,6.93.87,13.27-2,19.82-3.41,3.71-.82,7.35-2,11-3,.06.36.11.72.17,1.07-2.75.06-4.72,1.13-5,4.11a73.26,73.26,0,0,0-.43,8.1c0,.5,1.25,1,1.93,1.47l-9.63,19c-1.75-1-3.71-2.53-5.21,0a7.54,7.54,0,0,0-.61,4.56c.87,6.58.66,13-2.51,19-2.61-4.16-5.51-8.17-7.75-12.52-1.57-3.07-2.25-6.59-3.34-9.91q-.78-5.56-1.57-11.11a38.77,38.77,0,0,1,2.43,5.14c.74,2.37,1.75,3.2,3.94,1.52a21.42,21.42,0,0,0,2.6-1.81,2.25,2.25,0,0,0,.11-1.93c-1.88-4.48-5.6-8.31-4.75-13.76a8.11,8.11,0,0,0-.64-2.53l-3.53,2.1-2.08.58a6.39,6.39,0,0,0-1.42.31c-13,6.11-26.14,12.12-39.08,18.43-3.24,1.58-6,4.15-9.2,6.43,1.06.93,1.49,1.6,2.07,1.79,6.59,2.07,13.08,4.8,19.83,5.9,9.4,1.53,11.17,8.7,7.83,14.37-1.7,2.89-2.87,6.1-4.65,8.94a75.31,75.31,0,0,1-5.26,6.79c-4.8-4.13-9.18-8-13.73-11.74-4.82-3.93-10.08-7.6-10.69-14.44-.34-3.77.2-7.61.34-11.42l.76-.22L86.4,74l-.62.43A96.36,96.36,0,0,0,78,80.17c-3.6,3.25-3.3,4.79.54,7.81,1,.75,1.29,2.25,2,3.37a9,9,0,0,0,1.35,1.87c3,3,6.26,5.82,9.2,8.92a36,36,0,0,1,10.08,20.69l-.68.65c-1.92-3.28-5.19-4.7-8.51-5.9q-17-6.15-34-12.11c-9.27-3.23-9.18-3.08-14.69,5.29-1.31,2-1,3,.36,4.49.39.45.15,1.45.19,2.2l-1.39.76Zm114-27.78,1.11-.37-4.95-15.18-1.2.39Z"/><path class="cls-3" d="M42.44,118.21l1.39-.76,4.73.09A12.35,12.35,0,0,0,51,119.2c5.66,2.08,6.29,3.25,4.15,9.16,1-.68,1.73-1,2.08-1.48a6.19,6.19,0,0,0,.52-2l.71-.31c.58,6.79,5.56,9.53,10.56,11.76-1.09,1.78-1.87,3.15-2.73,4.47-1.81,2.75,1.12,2.33,2.1,3.24.18.17.08.61.24.83,1.89,2.5,2.6,5.91,6.46,6.87,2,.49,4.31,2,1.67,4.95-.68.77-.29,3.09.38,4.27.49.87,2.21,1.06,3.38,1.55l.36-.82-2-2.27.31-.64,3.7,1.44,2.25,6.8,2.44-1-.41.76,6.94,6.93c-1.64,1.31-2.85,2.7-.69,4.28s4.32,2.91,6.38,4.49c2.67,2,5.25,4.21,7.83,6.37.32.27.3.91.55,1.31.5.8,1.06,1.56,1.63,2.3q3.49,4.59,7,9.16c.44.56,1,1.06,1.44,1.58l-1.3,3.51a26.51,26.51,0,0,1-3.25-1.85c-4.75-3.69-9.42-7.48-14.19-11.15a44.88,44.88,0,0,0-4.71-3c-4.21-2.48-8.42-4.95-12.66-7.37-4.48-2.56-9-5.07-13.48-7.59-6-3.39-10.74-8.8-17.26-11.39-5.23-2.08-8.5-6.74-13.17-9.57-2.09-1.26-3.64-3.4-5.56-5A20.51,20.51,0,0,0,29.42,148c-2.31,1.1-5.62.55-6.19-1.14s-1.25-3.51-1.93-5.39l1.44-1.17c-1.29-.84-2.26-1.83-3.41-2.15-2.22-.61-4.71-3.29-6.76.46-.11.21-1.61-.33-2.47-.53l12.15-9.41.17-.1.58-.44.58-.25.5-.37.63-.36a.9.9,0,0,1,.49-.3Z"/><path class="cls-4" d="M10.1,138.05c.86.2,2.36.74,2.47.53,2-3.75,4.54-1.07,6.76-.46,1.15.32,2.12,1.31,3.41,2.15l-1.44,1.17c.68,1.88,1.33,3.63,1.93,5.39s3.88,2.24,6.19,1.14a20.51,20.51,0,0,1,3.33,1.85c1.92,1.59,3.47,3.73,5.56,5,4.67,2.83,7.94,7.49,13.17,9.57,6.52,2.59,11.23,8,17.26,11.39,4.49,2.52,9,5,13.48,7.59,4.24,2.42,8.45,4.89,12.66,7.37a44.88,44.88,0,0,1,4.71,3c4.77,3.67,9.44,7.46,14.19,11.15a26.51,26.51,0,0,0,3.25,1.85c-1.2,4.4-.45,8.69.75,12.95-4.11-2-8.22-4.06-12.31-6.12-22.44-11.34-45-22.46-67.26-34.12-10.56-5.53-20.66-12-30.84-18.19-8.95-5.49-9.47-8.34-3.07-17.38C5.85,141.63,8.15,140,10.1,138.05Z"/><path class="cls-5" d="M274.23,225.66c-9.68,15.69-23.29,27.44-38.08,38-13.21,9.42-27.32,17.32-41.79,24.6a17.91,17.91,0,0,0-1.67,1.11l-17.9,8.2c-2.4.81-4.76,1.74-7.19,2.43-10.51,2.95-21,5.84-31.56,8.76-5.86,1.57-11.87,2.76-17.55,4.82-8.83,3.19-17.47,6.9-26.11,10.57a10.75,10.75,0,0,1-7.7.49c-3.17-1-6.41-1.71-9.62-2.56L74.72,321l11.48-5.88.73-.4.43-.15,19-5.76,17.73-4.67a15.12,15.12,0,0,0,2.62-.17c6.44-1.52,12.93-2.89,19.28-4.72,4.83-1.39,9.48-3.41,14.21-5.14h0l3.54-1.19h0l4.14-1.77h0l3.55-1.77h0l5.32-2.36h0l1.18-.59h0l8.27-3.55h0l1.18-.59h0l3.55-1.77h0l.6-.6h0l2.37-1.18h0l1.19-.59h0l4.14-1.77h0l2.65-1.12-.19-.46-1.85.4c-.87-.6-1.72-1.22-2.61-1.78-1.29-.81-2.6-1.58-3.91-2.37l2.73.65,7.17,1.8c0,.17.09.34.14.5l-.15.25.15-.25a5,5,0,0,0,1.69-.34q9.5-5.7,18.94-11.47l5.43-3.46c15.24-9.4,29-20.53,40.05-34.74a11.39,11.39,0,0,1,2.39-1.79C272.63,223.37,273.43,224.51,274.23,225.66Z"/><path class="cls-6" d="M140.1,38.44c-3.38-5.5-7-10.88-10.06-16.54-2.06-3.77-1.57-5.29,2.23-7.53,5.65-3.32,11.45-6.39,17.33-9.29A90.21,90.21,0,0,1,159,1.61a6.42,6.42,0,0,0,1.77.2c5.05-1,6.92,0,8.31,5.05,1.54,5.57,2.71,11.24,4.18,17.47l5.3-4.29,4.21-.69c.87.33,1.74.65,2.6,1,.6.25,1.18.56,1.77.84a11.4,11.4,0,0,1-1.92,1.24c-6.23,2.46-12.42,5-18.73,7.26C157.72,32.75,148.89,35.54,140.1,38.44Z"/><path class="cls-7" d="M136,308.76c10.52-2.92,21.05-5.81,31.56-8.76,2.43-.69,4.79-1.62,7.19-2.43,2.06,4.78,4,9.63,6.24,14.3,1,2.13,1.27,5.23,4.52,5.54a26.66,26.66,0,0,0,4.27-.24c-7.31,6.62-15.9,11.1-25,14.61a8.12,8.12,0,0,1-5.28-.36C148.56,327.17,142.09,318.16,136,308.76Z"/><path class="cls-7" d="M117.78,219.64c-1.2-4.26-2-8.55-.75-12.95l1.3-3.51,2-.32a48.36,48.36,0,0,1,4.63,1.73,190.94,190.94,0,0,1,34.74,22.14l-7.26,5.87.09,0-.63.63,0,0-.57.62c-.6,1.15-1.19,2.31-1.79,3.47-.77,2-1.55,4.07-2.33,6.1a1.09,1.09,0,0,0-.08.31l-4,8.9c-3.62-8.26-9.56-14.72-15.79-21.06C123.75,228,120.93,223.63,117.78,219.64Z"/><path class="cls-8" d="M140.1,38.44c8.79-2.9,17.62-5.69,26.35-8.75,6.31-2.22,12.5-4.8,18.73-7.26a10.94,10.94,0,0,0,1.91-1.24A42.23,42.23,0,0,0,193.38,19c7.44-4,14.78-8.19,22.15-12.31,2.28-.11,4.62-.58,6.84-.25,3.5.52,6.92,1.57,11.21,2.59-10.48,8.9-22.25,13.7-33.9,18.72l-2.79,1.2-.59.2-.64.34-.56.17-17.71,5.85-1.8.58,0,0c-3.67,1-7.31,2.19-11,3-6.55,1.45-12.89,4.28-19.82,3.41-3.33-.42-6.63-1.16-9.95-1.76Z"/><path class="cls-9" d="M143.09,252.62l4-8.9c0,1.9.08,3.8.07,5.7,0,2.19-.31,4.53,3,4.52-3,11.69-6.34,23.29-12,34-3.43,6.44-6.48,13.32-14,16.22l-17.72,4.67c1.61-1.47,3.14-3,4.84-4.41,8.31-6.71,15.87-14.16,21-23.59,2-3.74,2.81-8.17,4.15-12.29,2-4.38,4-8.74,5.91-13.14A21.17,21.17,0,0,0,143.09,252.62Z"/><path class="cls-10" d="M189.82,317.17a26.66,26.66,0,0,1-4.27.24c-3.25-.31-3.49-3.41-4.52-5.54-2.28-4.67-4.18-9.52-6.24-14.3l17.9-8.2c2.4,4.68,5,9.29,7.13,14.08,1.07,2.38,1.54,5.14-1.11,7.18l-.72.65,0,0-.64.64,0-.05-.65.62,0,0-6,4.07Z"/><path class="cls-3" d="M193.3,48.4l-4.78,8.3-1.07,1.85-.59,1.14c-1.54.17-2.46.67-1.22,2.31l-.59,1.22c-.74.66-1.74,1.17-2.19,2-2,3.59-4,7.19-5.66,10.94-1.36,3.06-2.24,6.33-3.34,9.51-.41,1-.82,2-1.22,2.94-1-1.54-2.22-2.2-4.15-1.41-.55.22-1.55-.64-2.34-1a44.44,44.44,0,0,0,2.94-5.3c2.35-5.88,4.47-11.85,6.79-17.75s4.64-11.49,7.14-17.63Z"/><path class="cls-11" d="M199.73,91a44,44,0,0,1,8,20c.26,1.76.35,3.54.53,5.3-.93.19-2,.81-2.74.52-2.23-.92-4.32-2.19-6.46-3.33.17-.32.56-.72.47-1-1.21-3.16-2.34-6.36-3.78-9.42S192.47,97,190.81,94c-.25-.8-.49-1.6-.73-2.41q-1.67-5-3.32-10.07V77.94c2.82,2.73,5.62,5.49,8.48,8.18a29.05,29.05,0,0,0,2.79,2.1l1.06,1.53Z"/><path class="cls-4" d="M193.3,48.4,183,45.51c-2.5,6.14-4.88,11.86-7.14,17.63S171.44,75,169.09,80.89a44.44,44.44,0,0,1-2.94,5.3c-.21-2.54-.43-5.08-.64-7.62.44-4,.09-8.36,1.51-12,2-5.31,5.41-10.11,8.12-15.18a6.48,6.48,0,0,0,.22-2.41c1.44-2.07,2.81-4.2,4.35-6.2,1.36-1.76,3-2.3,5.4-1.68,3.54.92,7.23,1.28,10.85,1.89Q194.64,45.69,193.3,48.4Z"/><path class="cls-4" d="M190.07,91.55c.25.81.49,1.61.74,2.41q.42,5.67.85,11.35l-1,.43c-4-4-5.93-9.9-11.55-13.61v11l-6.55-3.92,6.23-20.08-.75-.29-4.2,6.83c1.1-3.18,2-6.45,3.34-9.51,1.66-3.75,3.67-7.35,5.66-10.94.45-.82,1.45-1.33,2.19-2l-1.36,4.06q-1.94,4.45-3.88,8.9c-.95,3.57-1.52,6.93,1.1,10.32C183.34,89.65,186.87,90.17,190.07,91.55Z"/><path class="cls-12" d="M136.38,268.54c-1.34,4.12-2.11,8.55-4.15,12.29-5.13,9.43-12.69,16.88-21,23.59-1.7,1.37-3.23,2.94-4.84,4.41l-19,5.76c3.78-2.24,7.54-4.53,11.36-6.71,15.82-9,28.72-20.89,36.42-37.77A8.31,8.31,0,0,1,136.38,268.54Z"/><path class="cls-11" d="M196,43c-3.62-.61-7.31-1-10.85-1.89-2.37-.62-4-.08-5.4,1.68-1.54,2-2.91,4.13-4.35,6.2-1.25,2-2.61,3.9-3.72,5.95-3.07,5.67-6,11.4-9,17.1l.06-2.24,9.63-19c3.75-4.33,7.42-8.74,11.31-12.94A55.76,55.76,0,0,1,189.43,33L195,30.72Z"/><path class="cls-11" d="M182.73,19.35l-4.21.69A43.62,43.62,0,0,0,167.66.61c6.57,1,11.25,4.92,15.1,10,1.51,2,2.86,4.08,4.28,6.12Z"/><path class="cls-13" d="M182.73,19.35,187,16.73c6.69-2.53,13.36-5.11,20.09-7.56,2.75-1,5.6-1.7,8.41-2.53-7.38,4.12-14.72,8.3-22.16,12.31a42.23,42.23,0,0,1-6.29,2.24c-.58-.28-1.16-.59-1.76-.84C184.47,20,183.6,19.68,182.73,19.35Z"/><path class="cls-4" d="M167.66.61A43.62,43.62,0,0,1,178.52,20l-5.3,4.29c-1.47-6.23-2.64-11.9-4.18-17.47-1.39-5.06-3.26-6-8.31-5.05a6.42,6.42,0,0,1-1.77-.2C161.72.08,164.58-.58,167.66.61Z"/><path class="cls-14" d="M179.81,76.18q1.94-4.46,3.88-8.9,1.53,5.34,3.07,10.66v3.54c-2.52.12-4.13-.86-4.79-3.49C181.78,77.25,180.56,76.78,179.81,76.18Z"/><path class="cls-13" d="M42.44,118.21,25.2,126.82a20.66,20.66,0,0,1,3.4-3.29c3.82-2.32,7.78-4.4,11.68-6.57Z"/><path class="cls-13" d="M195,30.72,189.43,33l-13.65,4.1c-.06-.35-.11-.71-.17-1.07l0,0,1.8-.58,17.71-5.85C195.06,30,195,30.35,195,30.72Z"/><path class="cls-15" d="M276.08,222.63a7.47,7.47,0,0,0,7.74,0,34.5,34.5,0,0,1,4.3-1.74c-.1.36-.11.94-.33,1.05-4.07,1.91-7.92,4.57-12.78,3.79C275.36,224.69,275.72,223.66,276.08,222.63Z"/><path class="cls-9" d="M276.08,222.63c-.36,1-.72,2.06-1.07,3.09l-.78-.06-2.41-3.44,4-1.27Z"/><path class="cls-7" d="M190.83,316.48l6-4.07Z"/><path class="cls-4" d="M185.64,62c-1.24-1.64-.32-2.14,1.22-2.31C186.46,60.46,186.05,61.23,185.64,62Z"/><path class="cls-13" d="M196.89,28.9l2.79-1.2Z"/><path class="cls-4" d="M187.45,58.55l1.07-1.85Z"/><path class="cls-13" d="M24.71,127.12l-.63.36Z"/><path class="cls-13" d="M23.58,127.85l-.58.25Z"/><path class="cls-13" d="M195.66,29.44l.64-.34Z"/><polygon class="cls-13" points="22.42 128.54 22.25 128.64 22.28 128.47 22.42 128.54"/><path class="cls-7" d="M198,311.28l.72-.65Z"/><path class="cls-7" d="M197.4,311.87l.64-.64Z"/><path class="cls-7" d="M196.8,312.44l.65-.62Z"/><path class="cls-12" d="M86.93,314.74l-.73.4Z"/><path class="cls-16" d="M219.89,122.25V106.87a81.77,81.77,0,0,0,6,5.66c2.6,2,5.51,3.68,8.2,5.61s4.93,4.07,7.59,5.8c6.77,4.41,13.69,8.58,20.44,13,1,.63,1.33,2.15,2.05,3.19a38.66,38.66,0,0,0,3.57,4.81c3.56,3.72,7.23,7.29,8.51,12.56a5.56,5.56,0,0,0,1.35,1.85c.37.44,1.22,1,1.14,1.2-2,4.07,2.75,5.73,3.1,8.9.13,1.18.48,3-.1,3.48-3.51,2.61-1.61,6.18-2,9.33-.12,1,.21,2.63-.25,2.87-1.52.81-3.47,1.81-4.95,1.45a4.86,4.86,0,0,0-4.59.66c-5.26,3.88-10.67,7.58-15.78,11.65-1.46,1.17-2.09,3.38-3.1,5.11l-17.13-8.16a4.87,4.87,0,0,1,2.07-4.49c4.07-3.24,8-6.76,9.32-12.07.7-2.72.65-5.66,1.58-8.28,2.71-7.62,1.27-15.27-1.83-21.86-4.2-8.91-9.37-17.53-16.3-24.84C225.69,121.05,223.63,120.47,219.89,122.25Z"/><path class="cls-17" d="M233.94,195.84,251.07,204l9.4,4.81,9.87,5.76a28.61,28.61,0,0,1,4.15,3.11c.76.8.93,2.16,1.37,3.27l-4,1.27a11.79,11.79,0,0,0-2.39,1.8c-11.08,14.21-24.81,25.34-40.05,34.74l-.11-.14,1.23-2.9h0l.66-.6.53-.52c.77-1.84,2.22-3.67,2.22-5.5a69.75,69.75,0,0,1,4-23.87,6.8,6.8,0,0,0-.45-4.5A45.77,45.77,0,0,0,234,215a10.91,10.91,0,0,0,1.82-2.78c1.64-5.92.46-7.84-4.46-12A21.58,21.58,0,0,0,219.2,195c-1.64.57-4.17.7-4.73,1.81-1.3,2.59-3.73,2.82-5.73,3.94-5.48,3.07-11,6.15-16.5,9.07-1,.52-2.35.3-3.54.43,1-.75,2-1.49,2.93-2.23l2.93-2a18.77,18.77,0,0,0,3.21-1.14c6.18-3.47,12.32-7,18.46-10.54l.7-.54h0l1.15-.62h0l.63-.54h0l1.17-.61h0l1.38-1.08a.83.83,0,0,0,.35,0l2.26-.54c0,3.41,2.66,3,4.78,3.41Zm4.24,7.31-.42-.18.4.19,4.46,3.15,3.23,2.85.71-1-3.62-2.1Z"/><path class="cls-15" d="M233.94,195.84l-5.27-2.13c.3-3.14.59-6.29.84-9.44,0-.11-.44-.26-.67-.39l.15-3.11c-.33-3.88-.45-7.8-1-11.65-1.87-12.55-5.82-24.52-10.64-36.23a12,12,0,0,1-.44-3c1-2.56,2-5.11,3-7.67,3.74-1.78,5.8-1.2,8.89,2,6.93,7.31,12.1,15.93,16.3,24.84,3.1,6.59,4.54,14.24,1.83,21.86-.93,2.62-.88,5.56-1.58,8.28-1.37,5.31-5.25,8.83-9.32,12.07A4.87,4.87,0,0,0,233.94,195.84Z"/><path class="cls-18" d="M216.88,129.92a12,12,0,0,0,.44,3c4.82,11.71,8.77,23.68,10.64,36.23.58,3.85.7,7.77,1,11.65a17.36,17.36,0,0,1-6.66,8.88c-.34.24-.47.78-.7,1.19a.83.83,0,0,1-.35,0L219.9,192h0l-1.17.61h0l-.63.54h0l-1.15.62h0l-.7.54c-6.14,3.52-12.28,7.07-18.46,10.54a18.77,18.77,0,0,1-3.21,1.14l.6-6.7a64.26,64.26,0,0,0,3.86-5.76c2.88-5.42,6.25-10.71,8.17-16.47a94.41,94.41,0,0,0,4.65-20.41,75.29,75.29,0,0,0-2.75-30,15.29,15.29,0,0,0-9.31-10.24,10.89,10.89,0,0,0-1.38-1.25c-3.07-2-6.16-3.94-9.25-5.91l9.91,4.28c2.14,1.14,4.23,2.41,6.46,3.33.72.29,1.81-.33,2.74-.52.93,1.38,1.93,2.71,2.78,4.13,1.39,2.34,2.64,4.76,4,7.1A24.43,24.43,0,0,0,216.88,129.92Z"/><path class="cls-19" d="M270.34,214.57l-9.87-5.76C267.16,207.11,270.06,208.81,270.34,214.57Z"/><path class="cls-18" d="M199.73,91l-.64-1.23c4.17.51,8.5.59,12.06,4.45Z"/><path class="cls-18" d="M211.45,95.8c-.16-.34-.31-.69-.47-1l.83.66Z"/><path class="cls-18" d="M211.81,95.43l.21.63-.57-.26Z"/><path class="cls-20" d="M101.17,122.83a36,36,0,0,0-10.08-20.69c-2.94-3.1-6.15-5.93-9.2-8.92a9,9,0,0,1-1.35-1.87c-.68-1.12-1-2.62-2-3.37-3.84-3-4.14-4.56-.54-7.81a96.36,96.36,0,0,1,7.75-5.79h0c-.14,3.81-.68,7.65-.34,11.42.61,6.84,5.87,10.51,10.69,14.44,4.55,3.7,8.93,7.61,13.73,11.74a75.31,75.31,0,0,0,5.26-6.79c1.78-2.84,2.95-6,4.65-8.94,3.34-5.67,1.57-12.84-7.83-14.37-6.75-1.1-13.24-3.83-19.83-5.9-.58-.19-1-.86-2.07-1.79,3.21-2.28,6-4.85,9.2-6.43,12.94-6.31,26-12.32,39.08-18.43a6.39,6.39,0,0,1,1.42-.31l-1.29,14.08c-.59,9.12.5,18,6.28,25.34,2.39,3.06,6,5.19,9,7.75-2.59.63-5.21,1.15-7.76,1.92-7.35,2.22-13.16,7-19.21,11.47-4,3-8.88,4.81-12.56,8.07C110.31,121.11,105.14,120.24,101.17,122.83Zm7.41-9.62c-.16-.07-.36-.23-.47-.18s-.15.29-.22.45c.16.07.35.24.47.19S108.51,113.37,108.58,113.21ZM106.79,115l-.48-.2c-.07.16-.23.35-.19.47a.5.5,0,0,0,.45.19C106.68,115.39,106.72,115.14,106.79,115Z"/><path class="cls-8" d="M101.17,122.83c4-2.59,9.14-1.72,13-5.17,3.68-3.26,8.56-5.12,12.56-8.07,6.05-4.46,11.86-9.25,19.21-11.47,2.55-.77,5.17-1.29,7.76-1.92l1.65.23c.14.24.26.66.42.68,3.62.49,7.24.94,10.85,1.39.05.24.09.47.13.71-2,1.74-4,3.63-6.11,5.21-6.29,4.59-12.68,9.06-19,13.58-11.39,7.41-23.46,13.82-34.21,22.43-.24-.43-.53-.91-1.2-2.08l-.36,3v.14l-.72.23c-1.31-1.07-2.64-2.12-3.91-3.24-.7-.61-1.29-1.33-1.93-2l4.32-1.46-3.15-11.5Z"/><path class="cls-21" d="M100.49,123.48l3.15,11.5-4.32,1.46a24.49,24.49,0,0,1-3.67-.85c-11.94-4.69-23.83-9.48-35.78-14.14-3.71-1.45-7.54-2.62-11.31-3.91l-4.73-.09c0-.75.2-1.75-.19-2.2-1.31-1.48-1.67-2.5-.36-4.49,5.51-8.37,5.42-8.52,14.69-5.29Q75,111.4,92,117.58C95.3,118.78,98.57,120.2,100.49,123.48Z"/><path class="cls-4" d="M155.4,96.43l-1.65-.23c-3.05-2.56-6.63-4.69-9-7.75-5.78-7.39-6.87-16.22-6.28-25.34a11.63,11.63,0,0,1,2.18,2.2c1,1.76,1.75,3.67,2.6,5.51,1.09,3.33,1.77,6.85,3.34,9.92,2.24,4.35,5.14,8.36,7.75,12.52l1.05,2.17Z"/><path class="cls-20" d="M141.82,48.45l3.53-2.1a8.11,8.11,0,0,1,.64,2.53c-.85,5.45,2.87,9.28,4.75,13.76a2.25,2.25,0,0,1-.11,1.93,21.42,21.42,0,0,1-2.6,1.81c-2.19,1.68-3.2.85-3.94-1.52a40,40,0,0,0-2.42-5.14.54.54,0,0,1,0-.43l-.39-1.45C140.93,54.68,138.85,51.43,141.82,48.45Z"/><path class="cls-22" d="M175.78,37.13,189.43,33a55.76,55.76,0,0,0-5.84,4.84c-3.89,4.2-7.56,8.61-11.31,12.94-.68-.49-1.93-1-1.93-1.47a73.26,73.26,0,0,1,.43-8.1C171.06,38.26,173,37.19,175.78,37.13Z"/><path class="cls-20" d="M155.37,95.43l-1.05-2.17c3.17-6,3.38-12.4,2.51-19a7.54,7.54,0,0,1,.61-4.56c1.5-2.48,3.46-.93,5.21,0L162.59,72q-2.47,8.56-5,17.12Q156.51,92.28,155.37,95.43Z"/><path class="cls-23" d="M141.71,59.29a.54.54,0,0,0,0,.43l1.56,11.11c-.85-1.85-1.61-3.76-2.6-5.52a11.63,11.63,0,0,0-2.18-2.2L139.74,49l2.08-.58c-3,3-.89,6.23-.5,9.39Z"/><path class="cls-13" d="M154.27,89.18l-5-15.16,1.2-.39,4.95,15.18Z"/><path class="cls-20" d="M85.78,74.38,86.4,74l.14.22-.76.22Z"/><path class="cls-22" d="M48.56,117.54c3.77,1.29,7.6,2.46,11.31,3.91,11.95,4.66,23.84,9.45,35.78,14.14a24.49,24.49,0,0,0,3.67.85c.64.67,1.23,1.39,1.93,2,1.27,1.12,2.6,2.17,3.91,3.24.14.43.29.85.72,2.1v-2.47l1.56,4.81-.57.2-.76-1.19-.48.16.87,5.08L109.56,163c1.34,4,2.41,8.07,4.08,11.9,3.55,8.14,7.41,16.14,11.15,24.19-.43.3-.84.83-1.29.87-1.75.14-3,.57-2.62,2.73l-.58.21-2,.32c-.48-.52-1-1-1.44-1.58q-3.52-4.56-7-9.16c-.57-.74-1.13-1.5-1.63-2.3-.25-.4-.23-1-.55-1.31-2.58-2.16-5.16-4.33-7.83-6.37-2.06-1.58-4.28-3-6.38-4.49s-1-3,.69-4.28l-6.94-6.93.41-.76-2.44,1-2.25-6.8-3.7-1.44-.31.64,2,2.27-.36.82c-1.17-.49-2.89-.68-3.38-1.55-.67-1.18-1.06-3.5-.38-4.27,2.64-3,.34-4.46-1.67-4.95-3.86-1-4.57-4.37-6.46-6.87-.16-.22-.06-.66-.24-.83-1-.91-3.91-.49-2.1-3.24.86-1.32,1.64-2.69,2.73-4.47-5-2.23-10-5-10.56-11.76l-.71.31a6.19,6.19,0,0,1-.52,2c-.35.53-1.09.8-2.08,1.48,2.14-5.91,1.51-7.08-4.15-9.16A12.35,12.35,0,0,1,48.56,117.54Z"/><path class="cls-24" d="M231.68,254.61c-.18.17-.36.34-.53.52l-.66.6h0l-5.32,4.74h0l-.59.6h0a31.25,31.25,0,0,0-2.86,1.36c-6.2,3.69-12.38,7.42-18.56,11.13l-7.17-1.8-2.73-.65h0l-5.91-1.83c-2,0-4,0-6,0H167.26q1.5-4.95,3-9.91l.57-.63c5.87.25,11.42-.33,15.91-4.85,3-3,6.5-5.66,9.55-8.69,1.34-1.32,2.14-3.19,3.19-4.81l.84-1.18c-.12-1.57-.24-3.14-.37-4.72-.73-3.67-1.46-7.35-2.24-11.3H214.8c2.39-5.29,5-10.87,7.4-16.55a5.87,5.87,0,0,0,0-3.88c-1.11-3.27-2.92-5.89-7.88-4.52L219.2,195a21.58,21.58,0,0,1,12.14,5.28c4.92,4.18,6.1,6.1,4.46,12A10.91,10.91,0,0,1,234,215a46.29,46.29,0,0,0-5.89,0,5.17,5.17,0,0,0-3.28,1.51,52.27,52.27,0,0,0-5.19,8.15,5.3,5.3,0,0,0,0,4.31c2,3.58,4.51,6.87,6.61,10.4C229,244.11,233.18,248.36,231.68,254.61Z"/><path class="cls-25" d="M170.81,258.67l-.57.63c-5,.74-6.58,5.5-10.14,7.94l.28.87,6.32,1.3c-2.28,7.67-4.58,15.34-6.82,23-.14.49.21,1.12.34,1.69-4.73,1.73-9.38,3.75-14.21,5.14-6.35,1.83-12.84,3.2-19.28,4.72a15.12,15.12,0,0,1-2.62.17c7.57-2.9,10.62-9.78,14-16.22,5.7-10.71,9-22.31,12-34,2-6.39,4.08-12.78,6-19.21.14-.51-.79-1.59-1.46-2s-1.53-.12-2.31-.14l7.26-5.86c1.2-.77,2.41-1.53,3.62-2.29,2.68-1.57,5.33-3.2,8.05-4.7,5.56-3.08,11.16-6.09,16.74-9.12l6.48,13.11c-2.37.58-4.73,1.25-7.12,1.73-3.54.7-5.62,2.78-6.72,6.19-.93,2.89-2.24,5.65-3.28,8.5C175.19,246.32,173,252.5,170.81,258.67Z"/><path class="cls-26" d="M160.22,294.13c-.13-.57-.48-1.2-.34-1.69,2.24-7.69,4.54-15.36,6.82-23l.56-.2h14.07c2,0,4,0,6,0l5.91,1.83h0c1.31.79,2.62,1.56,3.91,2.37.89.56,1.74,1.18,2.61,1.78l-.61,1.18h0l-4.14,1.77h0l-1.19.59h0L191.51,280h0l-.6.6h0l-3.55,1.77h0l-1.18.59h0l-8.27,3.55h0l-1.18.59h0l-5.32,2.36h0l-3.55,1.77h0l-4.14,1.77h0l-3.54,1.19Z"/><path class="cls-27" d="M203.18,273.53c6.18-3.71,12.36-7.44,18.56-11.13A31.25,31.25,0,0,1,224.6,261l-.65,1.18Q214.49,268,205,273.69a5,5,0,0,1-1.69.34h0C203.27,273.87,203.22,273.7,203.18,273.53Z"/><path class="cls-25" d="M177.93,286.45l8.27-3.55Z"/><path class="cls-17" d="M224,262.22l.65-1.18h0l.59-.6h0l4.09-1.84.11.14Z"/><path class="cls-25" d="M171.43,289.4l5.32-2.36Z"/><path class="cls-25" d="M163.75,292.94l4.14-1.77Z"/><path class="cls-25" d="M187.38,282.31l3.55-1.77Z"/><path class="cls-25" d="M195.05,278.18l4.14-1.77Z"/><path class="cls-25" d="M167.89,291.17l3.55-1.77Z"/><path class="cls-25" d="M160.21,294.13l3.54-1.19Z"/><path class="cls-25" d="M199.19,276.41l.61-1.18,1.85-.4.19.46Z"/><path class="cls-25" d="M191.51,280l2.37-1.18Z"/><path class="cls-25" d="M176.75,287l1.18-.59Z"/><path class="cls-25" d="M186.2,282.9l1.18-.59Z"/><path class="cls-25" d="M193.87,278.77l1.19-.59Z"/><path class="cls-27" d="M203.32,274l-.15.25.15-.25Z"/><path class="cls-25" d="M190.92,280.54l.6-.6Z"/><path class="cls-28" d="M163.29,224.45c-1.21.76-2.42,1.52-3.62,2.29a190.46,190.46,0,0,0-34.74-22.15,48.36,48.36,0,0,0-4.63-1.73l.58-.21,8.06.41q2.59,1.32,5.17,2.66L159.38,221Z"/><path class="cls-26" d="M152.41,232.6c.78,0,1.72-.21,2.31.14s1.6,1.48,1.46,2c-1.9,6.43-4,12.82-6,19.21-3.3,0-3-2.33-3-4.52,0-1.9,0-3.8-.07-5.7a1.09,1.09,0,0,1,.08-.31q1.17-3.06,2.33-6.1l1.78-3.47.58-.62,0,0,.63-.63Z"/><path class="cls-9" d="M149.55,237.31q-1.16,3-2.33,6.1C148,241.38,148.78,239.34,149.55,237.31Z"/><path class="cls-25" d="M152.5,232.62l-.63.63Z"/><path class="cls-25" d="M151.91,233.22l-.58.62Z"/><path class="cls-2" d="M177.39,35.46l-1.8.58Z"/><path class="cls-22" d="M155.37,95.43q1.14-3.15,2.26-6.3c4,0,5.82-1,6.5-4,.32-1.4,0-2.92.26-4.35a8.16,8.16,0,0,1,1.12-2.25c.21,2.54.43,5.08.64,7.62.79.36,1.79,1.22,2.34,1,1.93-.79,3.13-.13,4.15,1.41,0,.38,0,.77-.07,1.16l-.48.63c-.81,3.37-.28,7.64-5.42,8.11-3.61-.45-7.23-.9-10.85-1.39-.16,0-.28-.44-.42-.68Z"/><path class="cls-13" d="M166.67,98.5c5.14-.47,4.61-4.74,5.42-8.11l.48-.63c0-.39,0-.78.07-1.16.4-1,.81-2,1.22-2.94l4.2-6.83.75.29q-3.12,10-6.23,20.08H166.8Z"/><path class="cls-6" d="M199.06,113.48l-9.91-4.28,0,0L187.38,108v0l-1.18-.55L181.52,105v0l-.71-.67-1.67-1.29v-11c5.62,3.71,7.56,9.61,11.55,13.61l1-.43q-.42-5.69-.85-11.35c1.66,3.05,3.46,6,4.94,9.15s2.57,6.26,3.78,9.42C199.62,112.76,199.23,113.16,199.06,113.48Z"/><path class="cls-13" d="M179.81,76.18c.75.6,2,1.07,2.16,1.81.66,2.63,2.27,3.61,4.79,3.49q1.67,5,3.32,10.07c-3.21-1.38-6.74-1.9-9.17-5C178.29,83.11,178.86,79.75,179.81,76.18Z"/><path class="cls-6" d="M165.51,78.57a8.16,8.16,0,0,0-1.12,2.25c-.23,1.43.06,3-.26,4.35-.68,3-2.55,4-6.5,4q2.48-8.56,5-17.12c3-5.7,6-11.43,9-17.1,1.11-2,2.47-4,3.72-5.95a6.48,6.48,0,0,1-.22,2.41c-2.71,5.07-6.07,9.87-8.12,15.18C165.6,70.21,166,74.54,165.51,78.57Z"/><path class="cls-14" d="M179.13,103.12l1.67,1.29.71.67v0a17.55,17.55,0,0,0,2.08,3c3.47,3.36,4.74,7.76,4.74,12.22a92.44,92.44,0,0,1-1.66,16,83,83,0,0,1-3.3,11.45,97.86,97.86,0,0,1-3.76,10c-1.19,2.62-.86,6.5-5.15,6.86a36.35,36.35,0,0,1-.77,5.92c-.39,1.35-1.49,2.49-2.27,3.72.43-3.13.43-3.13-4.87-4.32-1.18-1.57-1.84-3.41-2.95-3.75-4.94-1.48-10.42.05-15.22-2.56a8.51,8.51,0,0,1,.16-2c2.83-.39,2.21-3,2.74-4.44a28.84,28.84,0,0,1-2.33-5.58,14.85,14.85,0,0,0-.72-2.83c-4.22-7.66-3.24-16.08-3.18-24.23,0-3.3-2-4.51-3.4-6.53,6.35-4.52,12.74-9,19-13.58,2.16-1.58,4.08-3.47,6.11-5.21h5.78Z"/><path class="cls-19" d="M171.43,174.21c.78-1.23,1.88-2.37,2.27-3.72a36.35,36.35,0,0,0,.77-5.92c4.29-.36,4-4.24,5.15-6.86a97.86,97.86,0,0,0,3.76-10,83,83,0,0,0,3.3-11.45,92.44,92.44,0,0,0,1.66-16c0-4.46-1.27-8.86-4.74-12.22a17.55,17.55,0,0,1-2.08-3l4.69,2.47,1.18.55v0l1.79,1.19,0,0c3.09,2,6.18,3.92,9.25,5.91a10.89,10.89,0,0,1,1.38,1.25c3.69,5.24,4.77,11.44,5.6,17.5a79.76,79.76,0,0,1,.21,16.28,145.37,145.37,0,0,1-2.45,17.61c-.73,3.72-1.7,7.56-5.13,10-1.33,1.28-3.13,2.32-3.88,3.87-1.22,2.52-1.74,5.36-2.58,8.06-1.52,4.93-3.05,9.86-4.49,14.51l4.57,3.78-2.94,2.23-.61.43c-5.58,3-11.18,6-16.74,9.12-2.72,1.5-5.37,3.13-8.05,4.7l-3.91-3.5c2.67-.71,4.09-3.25,4.63-5.18,1.27-4.61,3.67-9.26,1.68-14.37a6.47,6.47,0,0,1,.12-3.45c.55-2.54,1.31-5,1.9-7.55C169,185,170.19,179.61,171.43,174.21Z"/><path class="cls-27" d="M188.08,210.63l.61-.43c1.2-.13,2.56.09,3.55-.43,5.55-2.92,11-6,16.5-9.07,2-1.12,4.43-1.35,5.73-3.94.56-1.11,3.09-1.24,4.73-1.81l-4.88,3.22c5-1.37,6.77,1.25,7.88,4.52a5.87,5.87,0,0,1,0,3.88c-2.39,5.68-5,11.26-7.4,16.55H197.69c.78,3.95,1.51,7.63,2.24,11.3a30,30,0,0,0-1.56-4.54c-1.12-2.13-2.53-4.1-3.81-6.14Z"/><path class="cls-27" d="M231.68,254.61c1.5-6.25-2.65-10.5-5.44-15.19-2.1-3.53-4.63-6.82-6.61-10.4a5.3,5.3,0,0,1,0-4.31,52.27,52.27,0,0,1,5.19-8.15,5.17,5.17,0,0,1,3.28-1.51,46.29,46.29,0,0,1,5.89,0,45.77,45.77,0,0,1,3.44,5.71,6.8,6.8,0,0,1,.45,4.5,69.75,69.75,0,0,0-4,23.87C233.9,250.94,232.45,252.77,231.68,254.61Z"/><path class="cls-12" d="M191.63,208l-4.57-3.78c1.44-4.65,3-9.58,4.49-14.51.84-2.7,1.36-5.54,2.58-8.06.75-1.55,2.55-2.59,3.88-3.87l-2.85,21.5-.6,6.7Z"/><path class="cls-29" d="M228.84,183.88c.23.13.68.28.67.39-.25,3.15-.54,6.3-.84,9.44-2.12-.39-4.81,0-4.78-3.41C226.71,189.06,227.81,186.5,228.84,183.88Z"/><path class="cls-14" d="M228.84,183.88c-1,2.62-2.13,5.18-5,6.42l-2.26.54c.23-.41.36-1,.7-1.19a17.36,17.36,0,0,0,6.66-8.88Z"/><path class="cls-27" d="M229.27,258.62l-4.09,1.84,5.32-4.74Z"/><path class="cls-18" d="M238.18,203.15l4.76,2.91a2.51,2.51,0,0,1-.32.25l-4.46-3.15Z"/><path class="cls-18" d="M242.94,206.06l3.62,2.1-.71,1-3.23-2.85A2.51,2.51,0,0,0,242.94,206.06Z"/><path class="cls-14" d="M219.9,192l1.38-1.08Z"/><path class="cls-14" d="M216.93,193.73l1.15-.62Z"/><path class="cls-14" d="M218.72,192.58l1.17-.61Z"/><path class="cls-14" d="M218.09,193.11l.63-.54Z"/><path class="cls-14" d="M216.23,194.27l.7-.54Z"/><path class="cls-18" d="M238.16,203.16l-.4-.19.42.18Z"/><path class="cls-27" d="M230.49,255.73l.66-.6Z"/><path class="cls-14" d="M195.16,199.25l2.85-21.5c3.43-2.44,4.4-6.28,5.13-10a145.37,145.37,0,0,0,2.45-17.61,79.76,79.76,0,0,0-.21-16.28c-.83-6.06-1.91-12.26-5.6-17.5a15.29,15.29,0,0,1,9.31,10.24,75.29,75.29,0,0,1,2.75,30A94.41,94.41,0,0,1,207.19,177c-1.92,5.76-5.29,11-8.17,16.47A64.26,64.26,0,0,1,195.16,199.25Z"/><path class="cls-2" d="M108.58,113.21c-.07.16-.11.41-.22.46s-.31-.12-.47-.19c.07-.16.1-.41.22-.45S108.42,113.14,108.58,113.21Z"/><path class="cls-2" d="M106.79,115c-.07.16-.11.41-.22.46a.5.5,0,0,1-.45-.19c0-.12.12-.31.19-.47Z"/><path class="cls-23" d="M141.66,118c1.4,2,3.43,3.23,3.4,6.53-.06,8.15-1,16.57,3.18,24.23a14.85,14.85,0,0,1,.72,2.83,28.84,28.84,0,0,0,2.33,5.58c-.53,1.4.09,4.05-2.74,4.44a8.51,8.51,0,0,0-.16,2c-1.78,1-1.93,2.42-1.12,4.19.48,1,1.16,2.28,1,3.3-.89,5-1.24,10.35-7.18,11.65C141,189.58,139,196.1,142.51,202l-8.4,3.69q-2.58-1.33-5.17-2.66l-4.15-4c-3.74-8.05-7.6-16.05-11.15-24.19-1.67-3.83-2.74-7.92-4.08-11.9l-3.06-12.59-.87-5.08.48-.16.76,1.19.57-.2-1.56-4.81c.09-.73.18-1.46.37-3,.67,1.17,1,1.65,1.2,2.08C118.2,131.82,130.27,125.41,141.66,118Z"/><path class="cls-23" d="M105.88,141.45v2.33c-.43-1.25-.58-1.67-.72-2.1Z"/><path class="cls-2" d="M141.71,59.29l-.39-1.45Z"/><path class="cls-8" d="M124.79,199.05l4.15,4-8.06-.41c-.42-2.16.87-2.59,2.62-2.73C124,199.88,124.36,199.35,124.79,199.05Z"/><path class="cls-29" d="M106.5,150.37,109.56,163Z"/><path class="cls-26" d="M194.56,223.74c1.28,2,2.69,4,3.81,6.14a30,30,0,0,1,1.56,4.54c.13,1.58.25,3.15.37,4.73l-.84,1.17c-1.05,1.62-1.85,3.49-3.19,4.81-3.05,3-6.52,5.64-9.55,8.69-4.49,4.52-10,5.1-15.91,4.85,2.2-6.17,4.38-12.35,6.63-18.51,1-2.85,2.35-5.61,3.28-8.5,1.1-3.41,3.18-5.49,6.72-6.19C189.83,225,192.19,224.32,194.56,223.74Z"/><path class="cls-27" d="M167.26,269.21l-.56.2-6.32-1.3-.28-.87c3.56-2.44,5.13-7.2,10.14-7.94Q168.76,264.25,167.26,269.21Z"/><path class="cls-5" d="M193.27,271.08l-5.91-1.83Z"/><path class="cls-27" d="M199.46,240.32l.84-1.17Z"/><path class="cls-27" d="M225.18,260.45l-.59.6Z"/><path class="cls-12" d="M134.11,205.72l8.4-3.69c-3.56-5.93-1.52-12.45-1.44-19.31,5.94-1.3,6.29-6.7,7.18-11.65.18-1-.5-2.26-1-3.3-.81-1.77-.66-3.17,1.12-4.19,4.8,2.61,10.28,1.08,15.22,2.56,1.11.34,1.77,2.18,2.95,3.75,5.3,1.19,5.3,1.19,4.87,4.32-1.24,5.4-2.45,10.8-3.72,16.19-.59,2.52-1.35,5-1.9,7.55a6.47,6.47,0,0,0-.12,3.45c2,5.11-.41,9.76-1.68,14.37-.54,1.93-2,4.47-4.63,5.18Z"/><path class="cls-3" d="M172.57,89.76l-.48.63Z"/><path class="cls-18" d="M189.17,109.22,187.38,108Z"/><path class="cls-18" d="M187.39,108.05l-1.18-.55Z"/><path class="cls-19" d="M181.51,105.08l-.71-.67Z"/><text class="cls-30" transform="translate(364.85 147.8)">CROSS<tspan class="cls-31" x="433.9" y="0">F</tspan><tspan class="cls-32" x="492.59" y="0">ADE</tspan></text><text class="cls-33" transform="translate(373.89 264.83) scale(1.02 1)">DESIGN</text></svg>