<?xml version="1.0" encoding="UTF-8" standalone="no"?>
<!-- Generator: imaengine 1.0   -->

<svg
   xmlns:dc="http://purl.org/dc/elements/1.1/"
   xmlns:cc="http://creativecommons.org/ns#"
   xmlns:rdf="http://www.w3.org/1999/02/22-rdf-syntax-ns#"
   xmlns:svg="http://www.w3.org/2000/svg"
   xmlns="http://www.w3.org/2000/svg"
   xmlns:sodipodi="http://sodipodi.sourceforge.net/DTD/sodipodi-0.dtd"
   xmlns:inkscape="http://www.inkscape.org/namespaces/inkscape"
   width="1000"
   height="1400.5112"
   viewBox="0 0 1000 1400.5112"
   version="1.0"
   xml:space="preserve"
   id="svg472"
   sodipodi:docname="IMNGN 2-22-18.svg"
   inkscape:version="0.92.2 (30a58d1, 2017-08-07)"><metadata
     id="metadata478"><rdf:RDF><cc:Work
         rdf:about=""><dc:format>image/svg+xml</dc:format><dc:type
           rdf:resource="http://purl.org/dc/dcmitype/StillImage" /><dc:title></dc:title></cc:Work></rdf:RDF></metadata><defs
     id="defs476" /><sodipodi:namedview
     pagecolor="#ffffff"
     bordercolor="#666666"
     borderopacity="1"
     objecttolerance="10"
     gridtolerance="10"
     guidetolerance="10"
     inkscape:pageopacity="0"
     inkscape:pageshadow="2"
     inkscape:window-width="1920"
     inkscape:window-height="1025"
     id="namedview474"
     showgrid="false"
     inkscape:zoom="0.40855058"
     inkscape:cx="878.51663"
     inkscape:cy="670.10913"
     inkscape:window-x="0"
     inkscape:window-y="27"
     inkscape:window-maximized="1"
     inkscape:current-layer="svg472" /><g
     id="g667"
     transform="matrix(-1,0,0,1,597.55724,-246.72965)"><path
       d="m -287,1646 h 72 72 c 15.3,-9.6 32.9,-18.7 45,-29 14.5,-9.8 28,-23 38,-36 7.6,-6.9 35.7,-42.7 27,-4 -1,23.3 -3,48 -5,69 h 68 66 67 66 68 66 66 66 67 66 68 66 67 66 66 66 v -6 c 0.2,-26.1 -2,-52.4 -9,-71 -2.5,-22.5 -6.6,-44.4 -10,-67 -4.8,-21.6 -14.4,-40.6 -21,-59 -8.7,-16.8 -15.4,-36.1 -20,-58 -2.4,-25.5 -10.5,-47.9 -12,-74 1.7,-29.2 -12.7,-45.2 -19,-66 -22.5,-14.1 -3.3,-60 -21,-81 -8,-10.5 -15.6,-21.9 -26,-31 -9.4,-9.1 -13.6,-23.9 -18,-39 -12.6,-0.8 -18.1,-21 -25,-30 -6.1,-11.9 -15.7,-25.4 -15,-36 -12.2,-4.2 -35.1,-4.3 -42,-11 -8.8,-9.2 -17.5,-26.3 -30,-9 -11.9,7.9 -22.9,18.8 -35,24 -10.1,8.9 -22.4,15.6 -34,23 -13.1,6.2 -26.1,15.1 -39,19 -11.8,7.7 -25.2,13.3 -36,21 -13.7,6.1 -25.4,16.3 -36,23 -12,7 -22.5,15.5 -35,22 -9.7,9.6 -22.7,18.5 -34,24 -10.7,8.8 -23.5,15 -36,21 -11.6,4.5 -27.2,21 -36,17 -16.5,-5.7 -22,2.9 -39,6 -15.7,4.2 -13.4,15.1 -27,24 -15.3,3.7 -34.5,3.5 -48,9 -1.5,-2.6 -5.9,-2 -5,-8 -4.5,21.9 -12.5,42.5 -18,62 -8,17.5 -12.9,38.6 -22,55 -2.3,-25.3 -2.2,-61.3 0,-85 v -26 -15 c 0.7,-20.1 -1.1,-45.7 1,-63 1.4,-4.6 2.9,-9.1 5,-13 1.2,-8 3,-16.7 -8,-17 -1.5,2.1 -5.8,4.9 -7,5 -1.2,2.3 -4.7,5.9 -6,6 -12.4,20.6 -33.7,32.4 -50,49 -15,17.5 -36.9,30 -54,44 -6.4,10.3 -26.8,14.1 -24,30 0.1,18.6 -2.1,35.4 -4,52 -1.8,17.7 -3.4,35.1 -5,53 -4.7,13.8 -26.8,10.7 -34,22 -8.8,8.6 -19.4,23.4 -30,23 -0.3,-3.3 -6.2,-4.4 -6,-6 h -2 c 0,-6.7 -9.5,-11.3 -6,-18 -4.4,-2.2 -3.8,-13.3 -12,-11 18,28.5 -17.5,-6.7 -21,-13 -14.2,-9.7 -19.7,-30.8 -34,-39 -12.4,-15.7 -38.5,3.4 -50,9 -12.9,10.6 -19.8,27.7 -34,37 -13.5,11.3 -32.4,19.1 -50,24 -19.4,5 -38.7,12.4 -63,11 -26.3,-2.4 -31.7,18.8 -51,22 -14.9,9.1 -23.2,24.8 -39,33 -3.5,0.9 -1.8,-7.9 -4,-7 -0.7,35.5 2.5,63.6 -3,93 0.7,18.3 -1.2,39.2 1,55 1.9,18.1 13.4,25.6 20,38 3.2,-1.1 4.8,2.9 4,3 z"
       id="path274"
       inkscape:connector-curvature="0"
       style="fill:#17282d;fill-opacity:1;stroke:#17282d;stroke-width:0.75;stroke-linejoin:round" /><path
       d="m -305,1464 c 15.8,-8.2 24.1,-23.9 39,-33 19.3,-3.2 24.7,-24.4 51,-22 24.3,1.4 43.6,-6 63,-11 17.6,-4.9 36.5,-12.7 50,-24 14.2,-9.3 21.1,-26.4 34,-37 11.5,-5.6 37.6,-24.7 50,-9 14.3,8.2 19.8,29.3 34,39 3.5,6.3 39,41.5 21,13 -2.7,-4.4 -4.8,-13.9 -9,-16 -11.8,-16.7 -20.8,-36.7 -33,-54 -9.5,-19 -19,-38.5 -28,-59 -8.4,-30.5 9.3,-47.1 24,-60 l 43,-43 c 8.6,-10.1 13.8,-25.9 20,-36 5.9,-12.4 9.7,-29.5 18,-38 6.9,-10.8 14.4,-24.3 21,-34 6.2,-11.8 12.1,-23.9 22,-32 5.4,-22.3 46.2,-25.4 39,-49 1.6,-3.8 4.5,-7.7 6,-5 0.4,-18.4 -2.3,-34.7 -6,-51 1.3,-16.7 -5,-36.5 -3,-49 -5.7,-12.9 -17.7,-24.1 -28,-15 -8.6,6.1 -19.7,12.6 -32,19 -12,6.5 -28,14.1 -36,11 -8.1,1.3 -22.8,-5.1 -33,6 -5,-1.6 -7.8,-9.3 -9,-14 -15.2,3.8 -27.1,10.9 -42,15 -12.5,6.5 -25.5,12.5 -39,18 -12.8,6.2 -24.2,13.8 -37,20 -12.9,5.3 -18.9,20.3 -24,31 -6,12 -12.1,28.8 -9,45 8.8,19.3 -3,30.7 -9,41 -6.3,12.7 -8.1,29.9 -18,39 -6.9,11.3 -12.8,26.4 -12,43 -14.1,16.4 -10,50.5 -23,68 -4.6,24.9 -11.3,48.2 -22,67 -4.6,17.2 -16.8,28.8 -21,44 -7.6,13.7 -2.5,42.6 -11,54 -9.4,11.4 -12.8,31.8 -21,43 -8.6,12.4 -19.4,22.6 -27,36 -1.2,11.8 -7.7,18.3 -7,32 2.2,-0.9 0.5,7.9 4,7 z"
       id="path288"
       inkscape:connector-curvature="0"
       style="fill:#142b33;fill-opacity:1;stroke:#142b33;stroke-width:0.75;stroke-linejoin:round" /><path
       d="m 63,1415 c 10.6,0.4 21.2,-14.4 30,-23 7.2,-11.3 29.3,-8.2 34,-22 1.6,-17.9 3.2,-35.3 5,-53 1.9,-16.6 4.1,-33.4 4,-52 -5.7,-1 -6.2,7 -10,6 -15.6,15.8 -23.7,35.5 -36,49 -6.5,-17 -14.1,-33.4 -20,-52 -7.8,-15 -14.8,-33.8 -21,-50 -8.2,-20.4 -22.8,-47.1 -15,-70 l -43,43 c -14.7,12.9 -32.4,29.5 -24,60 9,20.5 18.5,40 28,59 12.2,17.3 21.2,37.3 33,54 2.6,-2.9 7.4,-3.1 8,-8 l 4,-1 c 11.1,-18.3 23.7,-12.9 26,6 14.2,13.8 0.4,22.6 -12,30 -7.6,5.2 3.1,11.4 3,18 -0.2,1.6 5.7,2.7 6,6 z"
       id="path292"
       inkscape:connector-curvature="0"
       style="fill:#e0e0df;fill-opacity:1;stroke:#e0e0df;stroke-width:0.75;stroke-linejoin:round" /><path
       d="m 55,1409 h 2 c 0.1,-6.6 -10.6,-12.8 -3,-18 h -5 c -3.5,6.7 6,11.3 6,18 z"
       id="path294"
       inkscape:connector-curvature="0"
       style="fill:#d0cbc8;fill-opacity:1;stroke:#d0cbc8;stroke-width:0.75;stroke-linejoin:round" /><path
       d="m 49,1391 h 5 c 12.4,-7.4 26.2,-16.2 12,-30 -2.3,-18.9 -14.9,-24.3 -26,-6 3.6,1.6 -1,5.4 0,7 3.5,3.6 3.5,10.2 0,11 -1.2,-2.4 -4.6,-6.5 -4,-9 v -8 c -0.6,4.9 -5.4,5.1 -8,8 4.2,2.1 6.3,11.6 9,16 8.2,-2.3 7.6,8.8 12,11 z"
       id="path296"
       inkscape:connector-curvature="0"
       style="fill:#95725f;fill-opacity:1;stroke:#95725f;stroke-width:0.75;stroke-linejoin:round" /><path
       d="m 40,1373 c 3.5,-0.8 3.5,-7.4 0,-11 l -4,2 c -0.6,2.5 2.8,6.6 4,9 z"
       id="path298"
       inkscape:connector-curvature="0"
       style="fill:#1e3035;fill-opacity:1;stroke:#1e3035;stroke-width:0.75;stroke-linejoin:round" /><path
       d="m 36,1364 4,-2 c -1,-1.6 3.6,-5.4 0,-7 l -4,1 z"
       id="path300"
       inkscape:connector-curvature="0"
       style="fill:#1e3035;fill-opacity:1;stroke:#1e3035;stroke-width:0.75;stroke-linejoin:round" /><path
       d="m 279,1350 c 9.1,-16.4 14,-37.5 22,-55 5.5,-19.5 13.5,-40.1 18,-62 3.3,-15.7 9.5,-28.5 12,-45 5.4,-12.9 9.2,-30 14,-42 3.3,-15.2 8.2,-29.3 12,-45 3.9,-13.8 8.8,-29.9 12,-43 3.4,-17.6 7.4,-24.6 10,-44 4.8,-13.5 8.7,-30.5 11,-45 3.9,-14.6 7.2,-30.3 10,-46 2.9,-12.1 8.1,-28.1 12,-41 -4.7,1.4 -4.9,10.8 -6,14 -5.1,-15.6 -19.9,1.6 -19,13 -5.8,20.7 -15.3,38.7 -32,42 -1.8,-3.3 -9.2,-5.5 -12,-7 h -3 c 1,4.1 -2.8,7.3 -6,6 l -3,-2 c -11.9,6.6 1.2,13.3 -1,26 0.8,3.9 -2.9,6.8 -2,9 -1.9,9.2 13,10 14,18 4.2,1 3.9,13.4 1,16 0.6,9.7 -4,17.5 -7,21 -1.5,6 -2.2,12.3 -6,15 2.5,9.3 11.3,18.1 6,30 -2.8,17 -12.3,29.3 -20,39 -11.8,7.2 -18.9,19.1 -31,26 -2.1,3.9 -3.6,8.4 -5,13 v 63 c -0.3,27.6 5.2,-23.7 5,11 1.4,6.1 16.4,35.3 -6,30 -2.2,23.7 -2.3,59.7 0,85 z"
       id="path302"
       inkscape:connector-curvature="0"
       style="fill:#d3d3d3;fill-opacity:1;stroke:#d3d3d3;stroke-width:0.75;stroke-linejoin:round" /><path
       d="m 90,1320 c 12.3,-13.5 20.4,-33.2 36,-49 -21.1,-14 16.5,-27.3 25,-38 1.4,-27.3 27.1,-38.5 47,-52 20.3,-12.9 18.8,-43.8 51,-39 6.5,-1.6 10.7,-8.9 15,-11 8.5,3.7 18.5,-9.2 27,-13 17.4,-8.2 27.7,-32.2 45,-35 5.3,-11.9 -3.5,-20.7 -6,-30 -1.6,-0.1 -4.8,3.4 -8,3 -0.9,6.1 -9.6,4.4 -10,11 12.7,-1 7.1,26.8 -12,27 -19,11.5 -33.3,21.3 -62,15 h -13 c -16.2,7.8 -30.9,17.1 -51,21 -16.7,6.7 -28.4,20.6 -36,34 -10.7,13.8 -33,15.5 -48,24 -15.1,8.7 -28.6,20.9 -41,30 6.2,16.2 13.2,35 21,50 5.9,18.6 13.5,35 20,52 z"
       id="path306"
       inkscape:connector-curvature="0"
       style="fill:#cd8661;fill-opacity:1;stroke:#cd8661;stroke-width:0.75;stroke-linejoin:round" /><path
       d="m 126,1271 c 3.8,1 4.3,-7 10,-6 -2.8,-15.9 17.6,-19.7 24,-30 h -6 l -3,-2 c -8.5,10.7 -46.1,24 -25,38 z"
       id="path308"
       inkscape:connector-curvature="0"
       style="fill:#a86747;fill-opacity:1;stroke:#a86747;stroke-width:0.75;stroke-linejoin:round" /><path
       d="m 279,1265 c 22.4,5.3 7.4,-23.9 6,-30 3,6.1 -5.2,4.4 -6,4 z"
       id="path310"
       inkscape:connector-curvature="0"
       style="fill:#b2b0b0;fill-opacity:1;stroke:#b2b0b0;stroke-width:0.75;stroke-linejoin:round" /><path
       d="m 324,1241 c 13.5,-5.5 32.7,-5.3 48,-9 13.6,-8.9 11.3,-19.8 27,-24 17,-3.1 22.5,-11.7 39,-6 8.8,4 24.4,-12.5 36,-17 12.5,-6 25.3,-12.2 36,-21 11.3,-5.5 24.3,-14.4 34,-24 12.5,-6.5 23,-15 35,-22 10.6,-6.7 22.3,-16.9 36,-23 10.8,-7.7 24.2,-13.3 36,-21 12.9,-3.9 25.9,-12.8 39,-19 11.6,-7.4 23.9,-14.1 34,-23 12.1,-5.2 23.1,-16.1 35,-24 12.5,-17.3 21.2,-0.2 30,9 6.9,6.7 29.8,6.8 42,11 -0.7,10.6 8.9,24.1 15,36 6.9,9 12.4,29.2 25,30 -4.1,-19.7 -15.8,-34.7 -24,-50 -5.2,-16.5 -25.4,-23.7 -22,-46 4.6,-23.8 8,-57.4 -2,-78 h -1 c -3,-16.3 -19.8,-21.3 -32,-27 -11.7,-6.8 -24.6,-12.9 -39,-18 -14.8,-4 -30,-10.7 -45,-14 -12.7,-5.3 -30.6,-6.4 -48,-9 -3.4,3.7 -16.6,1.1 -21,2 -19.7,-0.1 -32.3,-10.3 -46,-15 -13,-7.3 -30.7,-12.4 -44,-18 -15.5,-4.3 -31.9,-10.7 -45,-17 -10.8,-8.2 -21.6,-17.4 -31,-28 -22.1,-11.4 -32.5,-39.9 -56,-45 15.4,14.7 16.8,52 12,79 0.7,30.1 -14.3,44.9 -15,72 -3.9,12.9 -9.1,28.9 -12,41 -2.8,15.7 -6.1,31.4 -10,46 -2.3,14.5 -6.2,31.5 -11,45 -2.6,19.4 -6.6,26.4 -10,44 -3.2,13.1 -8.1,29.2 -12,43 -3.8,15.7 -8.7,29.8 -12,45 -4.8,12 -8.6,29.1 -14,42 -2.5,16.5 -8.7,29.3 -12,45 -0.9,6 3.5,5.4 5,8 z"
       id="path314"
       inkscape:connector-curvature="0"
       style="fill:#132f3c;fill-opacity:1;stroke:#132f3c;stroke-width:0.75;stroke-linejoin:round" /><path
       d="m 279,1239 c 0.8,0.4 9,2.1 6,-4 0.2,-34.7 -5.3,16.6 -5,-11 h -1 z"
       id="path316"
       inkscape:connector-curvature="0"
       style="fill:#a59f9e;fill-opacity:1;stroke:#a59f9e;stroke-width:0.75;stroke-linejoin:round" /><path
       d="m 154,1235 h 6 c 17.1,-14 39,-26.5 54,-44 16.3,-16.6 37.6,-28.4 50,-49 -7.1,-1.1 -9.1,2.9 -15,3 v -3 c -32.2,-4.8 -30.7,26.1 -51,39 -19.9,13.5 -45.6,24.7 -47,52 z"
       id="path318"
       inkscape:connector-curvature="0"
       style="fill:#a9613e;fill-opacity:1;stroke:#a9613e;stroke-width:0.75;stroke-linejoin:round" /><path
       d="m 279,1224 h 1 v -63 c -2.1,17.3 -0.3,42.9 -1,63 z"
       id="path320"
       inkscape:connector-curvature="0"
       style="fill:#62646c;fill-opacity:1;stroke:#62646c;stroke-width:0.75;stroke-linejoin:round" /><path
       d="m 49,1218 c 12.4,-9.1 25.9,-21.3 41,-30 15,-8.5 37.3,-10.2 48,-24 7.6,-13.4 19.3,-27.3 36,-34 20.1,-3.9 34.8,-13.2 51,-21 1.1,-2.3 14.7,-2.3 13,0 28.7,6.3 43,-3.5 62,-15 19.1,-0.2 24.7,-28 12,-27 0.4,-6.6 9.1,-4.9 10,-11 -19.4,12 -42.2,22.7 -63,32 -0.2,-1.9 -3.8,-4.3 -3,-6 h -3 c -1.5,-7.1 5.5,-8.7 3,-14 h -6 c -5.5,-1.6 -15.3,-3.3 -21,-4 -16.8,-8.6 -48.7,-5.9 -52,-18 -26.9,-1.4 -38.6,-28.1 -62,-38 -9.9,8.1 -15.8,20.2 -22,32 -6.6,9.7 -14.1,23.2 -21,34 -8.3,8.5 -12.1,25.6 -18,38 -6.2,10.1 -11.4,25.9 -20,36 -7.8,22.9 6.8,49.6 15,70 z"
       id="path322"
       inkscape:connector-curvature="0"
       style="fill:#dba180;fill-opacity:1;stroke:#dba180;stroke-width:0.75;stroke-linejoin:round" /><path
       d="m 285,1148 c 12.1,-6.9 19.2,-18.8 31,-26 7.7,-9.7 17.2,-22 20,-39 -17.3,2.8 -27.6,26.8 -45,35 l -14,13 c 11,0.3 9.2,9 8,17 z"
       id="path326"
       inkscape:connector-curvature="0"
       style="fill:#5d483e;fill-opacity:1;stroke:#5d483e;stroke-width:0.75;stroke-linejoin:round" /><path
       d="m 249,1145 c 5.9,-0.1 7.9,-4.1 15,-3 1.3,-0.1 4.8,-3.7 6,-6 -0.7,-2.4 -4.3,-5.3 -6,-5 -4.3,2.1 -8.5,9.4 -15,11 z"
       id="path328"
       inkscape:connector-curvature="0"
       style="fill:#b16440;fill-opacity:1;stroke:#b16440;stroke-width:0.75;stroke-linejoin:round" /><path
       d="m 270,1136 c 1.2,-0.1 5.5,-2.9 7,-5 l 14,-13 c -8.5,3.8 -18.5,16.7 -27,13 1.7,-0.3 5.3,2.6 6,5 z"
       id="path330"
       inkscape:connector-curvature="0"
       style="fill:#c57d58;fill-opacity:1;stroke:#c57d58;stroke-width:0.75;stroke-linejoin:round" /><path
       d="m 225,1109 h 13 c 1.7,-2.3 -11.9,-2.3 -13,0 z"
       id="path334"
       inkscape:connector-curvature="0"
       style="fill:#dba182;fill-opacity:1;stroke:#dba182;stroke-width:0.75;stroke-linejoin:round" /><path
       d="m 259,1088 c 20.8,-9.3 43.6,-20 63,-32 3.2,0.4 6.4,-3.1 8,-3 3.8,-2.7 4.5,-9 6,-15 h -2 c -2,-2.1 -5.6,-7.1 -10,-6 l -2,2 c -5.5,5.1 -11.5,13.5 -18,16 l -3,2 c -12.1,12.4 -30.2,19.3 -45,30 -0.8,1.7 2.8,4.1 3,6 z"
       id="path336"
       inkscape:connector-curvature="0"
       style="fill:#593e31;fill-opacity:1;stroke:#593e31;stroke-width:0.75;stroke-linejoin:round" /><path
       d="m 253,1082 h 3 c 14.8,-10.7 32.9,-17.6 45,-30 -1.1,-5.7 3.5,-8.6 5,-9 7.4,-0.7 9.1,-10.5 16,-9 l 2,-2 c 12,1.6 10.1,-23.7 19,-15 2.9,-2.6 3.2,-15 -1,-16 -9.4,16.2 -25.2,19.3 -41,34 -9.8,16 -43.1,12.8 -45,33 2.5,5.3 -4.5,6.9 -3,14 z"
       id="path338"
       inkscape:connector-curvature="0"
       style="fill:#c88b6b;fill-opacity:1;stroke:#c88b6b;stroke-width:0.75;stroke-linejoin:round" /><path
       d="m 250,1068 h 6 c 1.9,-20.2 35.2,-17 45,-33 15.8,-14.7 31.6,-17.8 41,-34 -1,-8 -15.9,-8.8 -14,-18 -7,12.5 -26.8,12.7 -40,19 2.6,-12.1 19.1,-13.7 25,-21 1.3,-3.6 6.7,-5 8,-3 1.1,-6.2 4.1,-4.8 9,-4 2.2,-12.7 -10.9,-19.4 1,-26 -10.2,-4.2 -31.4,-21 -40,-10 0.7,2 7.1,14.4 -5,12 -1.7,-2.8 -1,-8.5 -3,-12 -20.7,-5.9 -60.7,-7.6 -76,7 -2.3,5.3 -11.7,6.4 -15,8 -0.1,-2.1 -4.1,-3.6 -3,-5 -6.5,4.1 -13.7,10.4 -23,9 3.7,-1.2 1,-6.9 0,-7 -2,0.6 -2.2,7 -4,6 -2.5,0.6 -4.5,5.1 -6,4 l -2,-1 c 7.2,23.6 -33.6,26.7 -39,49 23.4,9.9 35.1,36.6 62,38 3.3,12.1 35.2,9.4 52,18 5.7,0.7 15.5,2.4 21,4 z"
       id="path340"
       inkscape:connector-curvature="0"
       style="fill:#e3bca4;fill-opacity:1;stroke:#e3bca4;stroke-width:0.75;stroke-linejoin:round" /><path
       d="m 301,1052 3,-2 c -0.7,-3.3 3.2,-5.5 2,-7 -1.5,0.4 -6.1,3.3 -5,9 z"
       id="path342"
       inkscape:connector-curvature="0"
       style="fill:#c8825f;fill-opacity:1;stroke:#c8825f;stroke-width:0.75;stroke-linejoin:round" /><path
       d="m 304,1050 c 6.5,-2.5 12.5,-10.9 18,-16 -6.9,-1.5 -8.6,8.3 -16,9 1.2,1.5 -2.7,3.7 -2,7 z"
       id="path344"
       inkscape:connector-curvature="0"
       style="fill:#ac613d;fill-opacity:1;stroke:#ac613d;stroke-width:0.75;stroke-linejoin:round" /><path
       d="m 334,1038 h 2 c 3,-3.5 7.6,-11.3 7,-21 -8.9,-8.7 -7,16.6 -19,15 4.4,-1.1 8,3.9 10,6 z"
       id="path346"
       inkscape:connector-curvature="0"
       style="fill:#905f48;fill-opacity:1;stroke:#905f48;stroke-width:0.75;stroke-linejoin:round" /><path
       d="m 288,1002 c 13.2,-6.3 33,-6.5 40,-19 -0.9,-2.2 2.8,-5.1 2,-9 -4.9,-0.8 -7.9,-2.2 -9,4 1.6,5.2 -4.8,5.4 -6,5 l -2,-2 c -5.9,7.3 -22.4,8.9 -25,21 z"
       id="path350"
       inkscape:connector-curvature="0"
       style="fill:#a9613e;fill-opacity:1;stroke:#a9613e;stroke-width:0.75;stroke-linejoin:round" /><path
       d="m 315,983 c 1.2,0.4 7.6,0.2 6,-5 -1.3,-2 -6.7,-0.6 -8,3 z"
       id="path352"
       inkscape:connector-curvature="0"
       style="fill:#c1886a;fill-opacity:1;stroke:#c1886a;stroke-width:0.75;stroke-linejoin:round" /><path
       d="m 156,960 c 1.5,1.1 3.5,-3.4 6,-4 l -2,-2 c -1.5,-2.7 -4.4,1.2 -6,5 z"
       id="path354"
       inkscape:connector-curvature="0"
       style="fill:#958d89;fill-opacity:1;stroke:#958d89;stroke-width:0.75;stroke-linejoin:round" /><path
       d="m 166,957 c 9.3,1.4 16.5,-4.9 23,-9 2.9,-3.5 11.3,-7.5 7,-12 -7.1,-6.1 -12.2,4.4 -18,-3 -5.9,3.3 -6.7,14.9 -12,17 1,0.1 3.7,5.8 0,7 z"
       id="path356"
       inkscape:connector-curvature="0"
       style="fill:#9f9691;fill-opacity:1;stroke:#9f9691;stroke-width:0.75;stroke-linejoin:round" /><path
       d="m 162,956 c 1.8,1 2,-5.4 4,-6 5.3,-2.1 6.1,-13.7 12,-17 5.2,-13.1 14.6,-24.6 24,-31 12.5,-14.5 22,-2.7 39,-6 -0.4,-2.2 -3.2,-6 -3,-8 h -9 c -18.3,-11.1 -48.6,-13.2 -63,-28 h -3 c -1.8,-3.8 -9.2,-6 -12,-8 v 2 c -2,12.5 4.3,32.3 3,49 3.7,16.3 6.4,32.6 6,51 z"
       id="path358"
       inkscape:connector-curvature="0"
       style="fill:#d0cbc8;fill-opacity:1;stroke:#d0cbc8;stroke-width:0.75;stroke-linejoin:round" /><path
       d="m 192,953 c 3.3,-1.6 12.7,-2.7 15,-8 -0.2,-5.4 -3.7,-11.5 -11,-9 4.3,4.5 -4.1,8.5 -7,12 0.1,2.6 4.1,4.1 3,5 z"
       id="path360"
       inkscape:connector-curvature="0"
       style="fill:#d0906e;fill-opacity:1;stroke:#d0906e;stroke-width:0.75;stroke-linejoin:round" /><path
       d="m 355,951 c 16.7,-3.3 26.2,-21.3 32,-42 -0.9,-11.4 13.9,-28.6 19,-13 1.1,-3.2 1.3,-12.6 6,-14 0.7,-27.1 15.7,-41.9 15,-72 4.8,-27 3.4,-64.3 -12,-79 -1.4,-6.2 -9.5,-9.6 -18,-8 -6.1,20.8 -18.1,35.9 -33,48 l -40,41 c -14.2,12.8 -29.5,24.5 -42,39 -16.6,10.4 -26.9,27.1 -44,37 -0.2,2 2.6,5.8 3,8 21.7,3.2 36.2,15.3 53,21 16.9,8.5 35,18 49,27 2.8,1.5 10.2,3.7 12,7 z"
       id="path362"
       inkscape:connector-curvature="0"
       style="fill:#e8e8e7;fill-opacity:1;stroke:#e8e8e7;stroke-width:0.75;stroke-linejoin:round" /><path
       d="m 286,950 c 12.1,2.4 5.7,-10 5,-12 h -8 c 2,3.5 1.3,9.2 3,12 z"
       id="path364"
       inkscape:connector-curvature="0"
       style="fill:#c48c70;fill-opacity:1;stroke:#c48c70;stroke-width:0.75;stroke-linejoin:round" /><path
       d="m 334,950 c 3.2,1.3 7,-1.9 6,-6 h -1 c -13.9,-10.1 -31.7,-16.3 -45,-27 -16.8,-5.7 -31.3,-17.8 -53,-21 -17,3.3 -26.5,-8.5 -39,6 -9.4,6.4 -18.8,17.9 -24,31 5.8,7.4 10.9,-3.1 18,3 7.3,-2.5 10.8,3.6 11,9 15.3,-14.6 55.3,-12.9 76,-7 h 8 c 8.6,-11 29.8,5.8 40,10 z"
       id="path366"
       inkscape:connector-curvature="0"
       style="fill:#263843;fill-opacity:1;stroke:#263843;stroke-width:0.75;stroke-linejoin:round" /><path
       d="m 339,944 h 1 3 c -14,-9 -32.1,-18.5 -49,-27 13.3,10.7 31.1,16.9 45,27 z"
       id="path368"
       inkscape:connector-curvature="0"
       style="fill:#e7e7e7;fill-opacity:1;stroke:#e7e7e7;stroke-width:0.75;stroke-linejoin:round" /><path
       d="m 229,888 h 9 c 17.1,-9.9 27.4,-26.6 44,-37 12.5,-14.5 27.8,-26.2 42,-39 l 40,-41 c 14.9,-12.1 26.9,-27.2 33,-48 1.1,-2.3 -2.3,-4.3 -1,-6 -0.7,1.9 -5.7,2.5 -6,2 -1.9,-4.4 -6.6,-16.3 -5,-18 -3.3,-10.5 -8.5,-31.1 -3,-41 h -1 l -3,-1 c -1.5,2.8 -6.8,-1.8 -8,1 -1.2,-2.8 -6.1,-2.9 -6,-9 -1.4,-4.4 -4.3,-5.8 -7,-13 -8.8,2.3 -15.6,0.8 -21,4 -16.1,-4.9 -32.8,-25.7 -32,-52 1.9,-9.4 -1.8,-13.7 -1,-23 -1.4,-26.4 -7.6,-32.3 -14,-40 -24.1,-5.7 -11,33.9 -16,42 2.3,1.1 2.3,14.7 0,13 -2.6,7.9 -3,17.5 -11,20 0.2,2.8 -5.2,3.9 -6,4 -6.4,6.8 -15.9,13.5 -25,15 -2.6,2 -9.7,2.4 -12,2 v -2 c 2.8,-16.4 -19.7,-36.8 -38,-25 -13,-12.1 -18.4,-24.3 -42,-23 -8.8,13.6 2.9,50 -12,56 -15.8,-9.6 -17.4,30.4 -28,22 -15.5,4 -8.8,20.1 -20,23 3.8,0.4 -21.3,5.3 -22,22 8.5,4.5 19.6,-4.4 31,-4 20.2,-16 20.1,13.8 35,12 14.7,4.8 40.7,5.7 31,-20 -6.6,-20 -4.1,-31 -1,-48 3.3,-12.9 -18.9,-29 -8,-43 2.9,14.7 24.2,-14.2 29,9 5,16.2 11.4,31.8 7,51 13,6.3 11.8,27 11,48 2,0.7 3.3,5.3 3,6 17.2,-6.2 23.9,17.5 16,28 -5.6,16.4 -20.7,20.2 -31,35 -6.2,13 -11.4,33.8 -15,45 1,23 -10.7,30.4 1,45 14.4,14.8 44.7,16.9 63,28 z"
       id="path374"
       inkscape:connector-curvature="0"
       style="fill:#dd7a49;fill-opacity:1;stroke:#dd7a49;stroke-width:0.75;stroke-linejoin:round" /><path
       d="m 22,875 c 10.2,-11.1 24.9,-4.7 33,-6 8,3.1 24,-4.5 36,-11 12.3,-6.4 23.4,-12.9 32,-19 10.3,-9.1 22.3,2.1 28,15 v -2 c -4.3,-14.6 6,-37.1 -4,-49 -5.7,-7.7 -13.9,-27.8 -27,-12 -15,14.2 -17.7,-28.6 -26,-14 -6.8,-11.8 -20.5,-12.1 -28,-1 -3.9,-0.8 -11.2,-7.1 -14,16 -2.9,-0.8 -3.7,4.8 -6,3 -4,1.9 -6.8,-1.8 -9,-1 2,22.6 -6.3,-6.1 -7,9 -6.2,-22.9 -9.6,19.9 -15,24 -24.7,-1.7 -8.3,15.4 -3,27 -1.2,1.5 2.7,3.7 1,7 1.2,4.7 4,12.4 9,14 z"
       id="path376"
       inkscape:connector-curvature="0"
       style="fill:#552c19;fill-opacity:1;stroke:#552c19;stroke-width:0.75;stroke-linejoin:round" /><path
       d="m 163,860 h 3 c -11.7,-14.6 0,-22 -1,-45 3.6,-11.2 8.8,-32 15,-45 -1,-11.4 -7.8,-30.6 -21,-32 4.2,13.6 -17.5,16 -20,-7 -11.2,-6.8 -26.7,-15.2 -36,-21 13.3,16 -1,24.3 -15,18 -8.2,-16.4 -27,0.6 -30,13 -12.2,-3.9 -23.6,13.1 -25,29 0.7,17.9 -24.2,3.9 -27,21 -16.1,-20.5 -13.2,5.9 -26,10 5.3,22.6 13.3,41.2 32,53 -5.3,-11.6 -21.7,-28.7 3,-27 5.4,-4.1 8.8,-46.9 15,-24 0.7,-15.1 9,13.6 7,-9 2.2,-0.8 5,2.9 9,1 2.3,1.8 3.1,-3.8 6,-3 2.8,-23.1 10.1,-16.8 14,-16 7.5,-11.1 21.2,-10.8 28,1 8.3,-14.6 11,28.2 26,14 13.1,-15.8 21.3,4.3 27,12 10,11.9 -0.3,34.4 4,49 2.8,2 10.2,4.2 12,8 z"
       id="path378"
       inkscape:connector-curvature="0"
       style="fill:#95350c;fill-opacity:1;stroke:#95350c;stroke-width:0.75;stroke-linejoin:round" /><path
       d="m 637,854 c 4.4,-0.9 17.6,1.7 21,-2 -3.4,1.4 -16.6,-1.2 -21,2 z"
       id="path380"
       inkscape:connector-curvature="0"
       style="fill:#6c6d71;fill-opacity:1;stroke:#6c6d71;stroke-width:0.75;stroke-linejoin:round" /><path
       d="m -20,801 c 12.8,-4.1 9.9,-30.5 26,-10 2.8,-17.1 27.7,-3.1 27,-21 1.4,-15.9 12.8,-32.9 25,-29 3,-12.4 21.8,-29.4 30,-13 14,6.3 28.3,-2 15,-18 9.3,5.8 24.8,14.2 36,21 2.5,23 24.2,20.6 20,7 13.2,1.4 20,20.6 21,32 10.3,-14.8 25.4,-18.6 31,-35 7.9,-10.5 1.2,-34.2 -16,-28 h -3 c -2.1,-0.8 -2.1,-7.5 0,-6 0.8,-21 2,-41.7 -11,-48 4.4,-19.2 -2,-34.8 -7,-51 -4.8,-23.2 -26.1,5.7 -29,-9 -10.9,14 11.3,30.1 8,43 -3.1,17 -5.6,28 1,48 9.7,25.7 -16.3,24.8 -31,20 -14.9,1.8 -14.8,-28 -35,-12 -11.4,-0.4 -22.5,8.5 -31,4 -3.1,4.4 -10.3,4.2 -17,5 C 30.5,686.6 23.1,667.4 9,659 -4.5,647.5 24,617.9 -17,629 h -9 c 0,-3.1 -9.5,-0.6 -10,-2 -6.8,-1.3 -3,7.5 -8,8 55.9,-5.1 -18,35.1 20,54 4.7,1.3 4.7,7.3 9,9 3.8,2.3 6,9.7 7,12 12,-5.1 31.7,24.3 5,18 l -5,-2 c -4,6.1 -7.8,17.6 -12,26 8,7.5 -2.6,18.4 -3,27 0.5,8.8 -1.6,15.7 3,22 z"
       id="path382"
       inkscape:connector-curvature="0"
       style="fill:#c54711;fill-opacity:1;stroke:#c54711;stroke-width:0.75;stroke-linejoin:round" /><path
       d="m -23,779 c 0.4,-8.6 11,-19.5 3,-27 -4.1,5.4 -2,17.5 -3,27 z"
       id="path386"
       inkscape:connector-curvature="0"
       style="fill:#cf662e;fill-opacity:1;stroke:#cf662e;stroke-width:0.75;stroke-linejoin:round" /><path
       d="m -3,728 c 26.7,6.3 7,-23.1 -5,-18 h -1 c -0.9,6.8 9,11.9 1,16 z"
       id="path388"
       inkscape:connector-curvature="0"
       style="fill:#d47441;fill-opacity:1;stroke:#d47441;stroke-width:0.75;stroke-linejoin:round" /><path
       d="m 390,719 c 3.5,1.3 5.5,-2.1 6,-2 4.9,-8.9 -2.6,-14.8 -11,-16 -1.6,1.7 3.1,13.6 5,18 z"
       id="path390"
       inkscape:connector-curvature="0"
       style="fill:#c7a391;fill-opacity:1;stroke:#c7a391;stroke-width:0.75;stroke-linejoin:round" /><path
       d="m -11,710 h 2 1 c -1,-2.3 -3.2,-9.7 -7,-12 -0.4,3.2 4.2,7.2 4,12 z"
       id="path392"
       inkscape:connector-curvature="0"
       style="fill:#c34b13;fill-opacity:1;stroke:#c34b13;stroke-width:0.75;stroke-linejoin:round" /><path
       d="m 192,707 h 3 c 0.3,-0.7 -1,-5.3 -3,-6 -2.1,-1.5 -2.1,5.2 0,6 z"
       id="path394"
       inkscape:connector-curvature="0"
       style="fill:#de6b34;fill-opacity:1;stroke:#de6b34;stroke-width:0.75;stroke-linejoin:round" /><path
       d="m 40,701 c 6.7,-0.8 13.9,-0.6 17,-5 0.7,-16.7 25.8,-21.6 22,-22 11.2,-2.9 4.5,-19 20,-23 10.6,8.4 12.2,-31.6 28,-22 14.9,-6 3.2,-42.4 12,-56 v -7 c -16,18.2 -65.4,2.3 -85,9 -21.3,-0.6 -30,-20.7 -27,-39 h -5 v -3 c -5.4,1.2 -8.4,8.7 -10,12 -12.3,-6.7 -10.9,-38.7 -33,-27 -2.3,9.4 20.4,12.6 10,16 -2.7,-3.2 -10.4,-7.9 -13,-6 7.8,19.8 -11.6,34.5 -18,48 -6.7,14 -25.2,29.5 -17,48 8.6,-7.4 11.3,-2.1 20,0 6.8,2.7 16.6,1.9 22,5 41,-11.1 12.5,18.5 26,30 14.1,8.4 21.5,27.6 31,42 z"
       id="path396"
       inkscape:connector-curvature="0"
       style="fill:#e49b73;fill-opacity:1;stroke:#e49b73;stroke-width:0.75;stroke-linejoin:round" /><path
       d="m 370,660 c 1.2,-2.8 6.5,1.8 8,-1 v -2 -4 c -3.5,-1.3 -5.5,2.1 -6,1 0.7,-3.3 -6.6,-2.5 -8,-3 -0.1,6.1 4.8,6.2 6,9 z"
       id="path400"
       inkscape:connector-curvature="0"
       style="fill:#b85628;fill-opacity:1;stroke:#b85628;stroke-width:0.75;stroke-linejoin:round" /><path
       d="m 381,660 h 1 c 9.1,-14.4 19.3,-31.8 23,-54 2.7,-22.8 -0.5,-52 4,-73 1,-13.5 5.6,-22.9 5,-38 v -15 c -1.6,-17.9 -4.5,-35 -8,-52 -3.4,-16.1 -6.9,-32.6 -13,-47 -11.6,11.6 -0.1,32.2 -32,27 -24.3,-5.1 -34.4,-27.4 -48,-43 -30.8,-5.3 11.3,-51.2 -27,-47 -30.7,-5.2 -56.3,0.4 -73,-9 -20.4,-9.1 -47.6,-22.6 -56,5 2.9,3.9 13.8,9.5 9,13 -3.6,-3.5 -12.7,-6 -15,-10 -2.7,-5.7 -8.3,-7.1 -12,-8 -8.3,7.3 -17.6,-2.7 -31,2 5.2,0.7 1.4,7.1 -2,6 5.6,3.6 -2.5,6.6 -4,6 0.5,-2.7 -6.9,-0.7 -5,-3 -14,1.5 -22.8,-0.3 -30,9 -0.7,3.8 4.7,4.5 3,6 4.5,1.6 32,-4.3 21,-9 14.7,1.7 38.2,2.5 33,16 0.6,1 -12.8,34 3,33 4.7,8.9 26.6,22.4 27,11 11.5,-1.5 20.4,-0.6 29,-8 9.3,-14.2 20.1,-8.9 25,-9 6.6,-0.1 26.4,-18.7 21,-6 2.5,2.7 12.6,-3.6 21,-4 12.1,-7.5 27.1,0.6 30,-3 3.1,9.2 4.3,35.5 20,21 11.3,1.2 10.6,23.9 16,34 4.9,13.3 9.7,28.5 12,41 5.8,10.2 7.8,35.4 0,45 -10.7,4.7 -1.2,37.6 0,31 -0.9,-7.2 2.9,-8.6 2,-3 4,20.6 5.6,-3.6 7,18 1.4,16.8 -1.2,39.4 2,51 2.9,1.7 3.4,-10.9 15,-6 21.1,14.4 14.4,-5.1 39,2 8.7,22.9 -1.7,52.7 -15,67 v 2 z"
       id="path402"
       inkscape:connector-curvature="0"
       style="fill:#773b1e;fill-opacity:1;stroke:#773b1e;stroke-width:0.75;stroke-linejoin:round" /><path
       d="m 378,657 c 13.3,-14.3 23.7,-44.1 15,-67 -24.6,-7.1 -17.9,12.4 -39,-2 -11.6,-4.9 -12.1,7.7 -15,6 1,22.2 13.8,23.3 18,39 3.9,9.7 20.8,9.1 21,20 z"
       id="path404"
       inkscape:connector-curvature="0"
       style="fill:#513222;fill-opacity:1;stroke:#513222;stroke-width:0.75;stroke-linejoin:round" /><path
       d="m 372,654 c 0.7,-0.9 5.7,-1.5 6,-1 -0.2,-10.9 -17.1,-10.3 -21,-20 v 5 c 2.7,7.2 5.6,8.6 7,13 1.4,0.5 8.7,-0.3 8,3 z"
       id="path406"
       inkscape:connector-curvature="0"
       style="fill:#813b1b;fill-opacity:1;stroke:#813b1b;stroke-width:0.75;stroke-linejoin:round" /><path
       d="m 336,642 c 5.4,-3.2 12.2,-1.7 21,-4 v -5 c -4.2,-15.7 -17,-16.8 -18,-39 -3.2,-11.6 -0.6,-34.2 -2,-51 -1.4,-21.6 -3,2.6 -7,-18 0.9,-5.6 -2.9,-4.2 -2,3 -1.2,6.6 -10.7,-26.3 0,-31 7.8,-9.6 5.8,-34.8 0,-45 -2.3,-12.5 -7.1,-27.7 -12,-41 -5.4,-10.1 -4.7,-32.8 -16,-34 -15.7,14.5 -16.9,-11.8 -20,-21 -2.9,3.6 -17.9,-4.5 -30,3 -8.4,0.4 -18.5,6.7 -21,4 5.4,-12.7 -14.4,5.9 -21,6 -4.9,0.1 -15.7,-5.2 -25,9 -8.6,7.4 -17.5,6.5 -29,8 -0.4,11.4 -22.3,-2.1 -27,-11 -15.8,1 -2.4,-32 -3,-33 5.2,-13.5 -18.3,-14.3 -33,-16 11,4.7 -16.5,10.6 -21,9 2.9,9.9 -7.9,13.1 -16,15 -15.2,3.8 -24.4,13.6 -38,19 -18,13.3 20.2,-5 26,-6 14.1,-4.4 27.6,-9.9 46,-10 2.7,4.4 -5.3,48.8 6,46 -1.9,-31.6 18.3,9.2 35,2 20.2,1.1 34.3,10.8 43,21 7.3,14.5 19.5,26.1 30,34 12,10.3 22.9,23.2 29,36 28.6,-15.8 57.7,6.3 58,35 6.4,7.7 12.6,13.6 14,40 -0.8,9.3 2.9,13.6 1,23 -0.8,26.3 15.9,47.1 32,52 z"
       id="path408"
       inkscape:connector-curvature="0"
       style="fill:#b14414;fill-opacity:1;stroke:#b14414;stroke-width:0.75;stroke-linejoin:round" /><path
       d="m 220,636 c 7.8,0.8 13.5,-0.5 18,-3 -0.3,-1.3 -5.3,-2.4 -4,-4 -7.9,3.1 -25.4,-2.2 -14,7 z"
       id="path410"
       inkscape:connector-curvature="0"
       style="fill:#ae4519;fill-opacity:1;stroke:#ae4519;stroke-width:0.75;stroke-linejoin:round" /><path
       d="m -45,635 h 1 c 5,-0.5 1.2,-9.3 8,-8 l -3,-3 c -8.7,-2.1 -11.4,-7.4 -20,0 -0.8,4 2.6,6 2,6 1.2,2.1 8.2,3.6 12,5 z"
       id="path412"
       inkscape:connector-curvature="0"
       style="fill:#ca7144;fill-opacity:1;stroke:#ca7144;stroke-width:0.75;stroke-linejoin:round" /><path
       d="m 238,633 c 3.6,-2.4 10.6,-1.4 12,-6 0.4,-1.6 -3.6,-3.1 -3,-4 -5,0.7 -9.8,5.3 -13,6 -1.3,1.6 3.7,2.7 4,4 z"
       id="path414"
       inkscape:connector-curvature="0"
       style="fill:#9c3e15;fill-opacity:1;stroke:#9c3e15;stroke-width:0.75;stroke-linejoin:round" /><path
       d="m -26,629 h 9 c -5.4,-3.1 -15.2,-2.3 -22,-5 l 3,3 c 0.5,1.4 10,-1.1 10,2 z"
       id="path416"
       inkscape:connector-curvature="0"
       style="fill:#e49b73;fill-opacity:1;stroke:#e49b73;stroke-width:0.75;stroke-linejoin:round" /><path
       d="m 250,627 c 11.8,-5.7 26.4,-14 27,-27 -7.2,4.8 -21.5,16.6 -30,23 0.6,2.1 4.6,3.6 3,4 z"
       id="path418"
       inkscape:connector-curvature="0"
       style="fill:#973e18;fill-opacity:1;stroke:#973e18;stroke-width:0.75;stroke-linejoin:round" /><path
       d="m 219,623 c 2.3,0.4 9.4,0 12,-2 -2.8,-3.5 -8.5,0.6 -12,0 z"
       id="path420"
       inkscape:connector-curvature="0"
       style="fill:#dc7441;fill-opacity:1;stroke:#dc7441;stroke-width:0.75;stroke-linejoin:round" /><path
       d="m 219,621 c 3.5,0.6 9.2,-3.5 12,0 9.1,-1.5 18.6,-8.2 25,-15 -7.1,-8 5.6,-13.2 6,-4 8,-2.5 8.4,-12.1 11,-20 v -13 c 5,-8.1 -8.1,-47.7 16,-42 -0.3,-28.7 -29.4,-50.8 -58,-35 -21.2,2.5 -28.7,25.6 -41,23 -8.3,2.1 -6.1,37.4 -21,39 -1.4,-5.4 -1.1,-13.3 -4,-14 -2.3,-9.3 -0.3,11.2 -3,8 -1.2,-7.9 -7.9,-37.4 -9,-26 -0.1,3.5 0.8,11 -2,9 1.3,-3.4 -2.4,-6.3 -1,-9 -4,-23.9 -15.5,-42.9 -27,-58 0.5,16.2 12.9,27.5 7,49 0,21.3 8.7,35.4 9,53 v 7 c 23.6,-1.3 29,10.9 42,23 18.3,-11.8 40.8,8.6 38,25 z"
       id="path422"
       inkscape:connector-curvature="0"
       style="fill:#e99263;fill-opacity:1;stroke:#e99263;stroke-width:0.75;stroke-linejoin:round" /><path
       d="m 256,606 c 0.8,-0.1 6.2,-1.2 6,-4 -0.4,-9.2 -13.1,-4 -6,4 z"
       id="path424"
       inkscape:connector-curvature="0"
       style="fill:#e99263;fill-opacity:1;stroke:#e99263;stroke-width:0.75;stroke-linejoin:round" /><path
       d="m 273,582 c 2.3,1.7 2.3,-11.9 0,-13 z"
       id="path428"
       inkscape:connector-curvature="0"
       style="fill:#ea6f34;fill-opacity:1;stroke:#ea6f34;stroke-width:0.75;stroke-linejoin:round" /><path
       d="m 54,575 c 19.6,-6.7 69,9.2 85,-9 -0.3,-17.6 -9,-31.7 -9,-53 5.9,-21.5 -6.5,-32.8 -7,-49 -10.6,-6 -44.1,-16.7 -36,-23 4.5,2.7 -1.5,-7.4 0,-12 -2,-18.4 12.5,0.7 7,-30 -11.3,2.8 -3.3,-41.6 -6,-46 l -3,1 c 0.6,4.7 -4.4,7.2 -6,8 2.9,-5 -3.7,-4.5 -3,-6 -18.8,3.7 -34.8,10.7 -52,16 -20.3,2.2 -25.8,15.6 -44,23 11.2,11.1 -5.4,35.2 -7,52 0.1,20 -13.8,40.9 -6,62 0.3,-7 3.7,-11.2 7,-11 l 3,-1 c 14.1,-23.4 49.1,-10 62,4 4.8,0.7 7.3,3.2 7,8 30.6,20.4 8.2,23.4 -19,27 -3,18.3 5.7,38.4 27,39 z"
       id="path430"
       inkscape:connector-curvature="0"
       style="fill:#ebb290;fill-opacity:1;stroke:#ebb290;stroke-width:0.75;stroke-linejoin:round" /><path
       d="m 262,569 c 7.3,-6 -0.4,-22 -6,-23 -5.4,7.2 4.3,17.9 6,23 z"
       id="path432"
       inkscape:connector-curvature="0"
       style="fill:#e2662c;fill-opacity:1;stroke:#e2662c;stroke-width:0.75;stroke-linejoin:round" /><path
       d="m 169,554 c 14.9,-1.6 12.7,-36.9 21,-39 12.3,2.6 19.8,-20.5 41,-23 -6.1,-12.8 -17,-25.7 -29,-36 -10.5,-7.9 -22.7,-19.5 -30,-34 -8.7,-10.2 -22.8,-19.9 -43,-21 -16.7,7.2 -36.9,-33.6 -35,-2 5.5,30.7 -9,11.6 -7,30 -1.5,4.6 4.5,14.7 0,12 -8.1,6.3 25.4,17 36,23 11.5,15.1 23,34.1 27,58 h 3 c 1.1,-11.4 7.8,18.1 9,26 2.7,3.2 0.7,-17.3 3,-8 2.9,0.7 2.6,8.6 4,14 z"
       id="path434"
       inkscape:connector-curvature="0"
       style="fill:#d2581e;fill-opacity:1;stroke:#d2581e;stroke-width:0.75;stroke-linejoin:round" /><path
       d="m 12,545 c 1.6,-3.3 4.6,-10.8 10,-12 -5.5,-11 36.8,-9.3 -3,-18 -26,8.2 -18.1,-24.1 -42,-18 -0.6,7.6 1.4,8.6 -3,12 -0.3,4.9 4.3,7.8 5,9 22.1,-11.7 20.7,20.3 33,27 z"
       id="path436"
       inkscape:connector-curvature="0"
       style="fill:#a15430;fill-opacity:1;stroke:#a15430;stroke-width:0.75;stroke-linejoin:round" /><path
       d="m 22,536 h 5 c 27.2,-3.6 49.6,-6.6 19,-27 h -3 c -0.4,-2.7 -5.3,-4.8 -4,-8 -12.9,-14 -47.9,-27.4 -62,-4 23.9,-6.1 16,26.2 42,18 39.8,8.7 -2.5,7 3,18 z"
       id="path438"
       inkscape:connector-curvature="0"
       style="fill:#da8051;fill-opacity:1;stroke:#da8051;stroke-width:0.75;stroke-linejoin:round" /><path
       d="m -11,534 c 10.4,-3.4 -12.3,-6.6 -10,-16 -0.7,-1.2 -5.3,-4.1 -5,-9 -2.1,-1.2 2.1,-7.9 0,-11 -3.3,-0.2 -6.7,4 -7,11 0.9,8.2 0.2,15.4 9,19 2.6,-1.9 10.3,2.8 13,6 z"
       id="path440"
       inkscape:connector-curvature="0"
       style="fill:#cf855d;fill-opacity:1;stroke:#cf855d;stroke-width:0.75;stroke-linejoin:round" /><path
       d="m 151,531 c 2.8,2 1.9,-5.5 2,-9 h -3 c -1.4,2.7 2.3,5.6 1,9 z"
       id="path442"
       inkscape:connector-curvature="0"
       style="fill:#e57235;fill-opacity:1;stroke:#e57235;stroke-width:0.75;stroke-linejoin:round" /><path
       d="m 271,518 c 6.4,-0.2 0.1,-11.2 -4,-11 -6.7,4 2.5,7.5 4,11 z"
       id="path444"
       inkscape:connector-curvature="0"
       style="fill:#d64c18;fill-opacity:1;stroke:#d64c18;stroke-width:0.75;stroke-linejoin:round" /><path
       d="m -26,509 c 4.4,-3.4 2.4,-4.4 3,-12 l -3,1 c 2.1,3.1 -2.1,9.8 0,11 z"
       id="path446"
       inkscape:connector-curvature="0"
       style="fill:#cb7c52;fill-opacity:1;stroke:#cb7c52;stroke-width:0.75;stroke-linejoin:round" /><path
       d="m 43,509 h 3 c 0.3,-4.8 -2.2,-7.3 -7,-8 -1.3,3.2 3.6,5.3 4,8 z"
       id="path448"
       inkscape:connector-curvature="0"
       style="fill:#e29266;fill-opacity:1;stroke:#e29266;stroke-width:0.75;stroke-linejoin:round" /><path
       d="m 414,495 c 2.3,-1.5 2.3,-12.5 0,-15 z"
       id="path450"
       inkscape:connector-curvature="0"
       style="fill:#cb8e6b;fill-opacity:1;stroke:#cb8e6b;stroke-width:0.75;stroke-linejoin:round" /><path
       d="m 361,408 c 31.9,5.2 20.4,-15.4 32,-27 -6.5,-14.5 -11.7,-34.9 -24,-46 h -2 c -1.9,-18.1 -38.7,-11.1 -31,-33 -11.5,-4.8 -19.8,-17.4 -32,-24 -11.4,-3 -20,-19.1 -37,-15 -10.9,-5.4 -30.5,-6.7 -45,-11 -16.6,1.6 -25.9,8 -41,9 -14.2,5.3 -22.9,13.2 -42,5 -11.5,-5.8 -28,4.1 -43,6 -11,5.3 -25.5,11.7 -39,16 -12.7,9.7 -27.7,6.9 -42,12 -1.3,2.1 -7.3,4.5 -9,8 -0.3,1.8 -4.9,2.8 -5,3 -6.4,9.1 -24,7.5 -22,25 12.5,13 29.5,1.2 45,5 2.7,2.2 7.3,-4.2 7,-5 -2.9,-16.3 25.4,-7.5 36,-7 7.2,-9.3 16,-7.5 30,-9 0.7,-2.9 6.3,-3.8 8,-3 -5.9,-2.9 -5.8,-10.8 3,-6 13.4,-4.7 22.7,5.3 31,-2 3.7,0.9 9.3,2.3 12,8 2.4,-0.7 4.8,-4.3 6,-3 8.4,-27.6 35.6,-14.1 56,-5 16.7,9.4 42.3,3.8 73,9 38.3,-4.2 -3.8,41.7 27,47 13.6,15.6 23.7,37.9 48,43 z"
       id="path452"
       inkscape:connector-curvature="0"
       style="fill:#4c3226;fill-opacity:1;stroke:#4c3226;stroke-width:0.75;stroke-linejoin:round" /><path
       d="m -21,395 h 1 c 18.2,-7.4 23.7,-20.8 44,-23 17.2,-5.3 33.2,-12.3 52,-16 1.3,-2.3 8.8,-1.4 9,-2 l 3,-1 c -18.4,0.1 -31.9,5.6 -46,10 -5.8,1 -44,19.3 -26,6 13.6,-5.4 22.8,-15.2 38,-19 8.1,-1.9 18.9,-5.1 16,-15 1.7,-1.5 -3.7,-2.2 -3,-6 -10.6,-0.5 -38.9,-9.3 -36,7 0.3,0.8 -4.3,7.2 -7,5 -15.5,-3.8 -32.5,8 -45,-5 -11.9,18 -1.3,52.8 0,59 z"
       id="path454"
       inkscape:connector-curvature="0"
       style="fill:#913e17;fill-opacity:1;stroke:#913e17;stroke-width:0.75;stroke-linejoin:round" /><path
       d="m 79,362 c 1.6,-0.8 6.6,-3.3 6,-8 -0.2,0.6 -7.7,-0.3 -9,2 -0.7,1.5 5.9,1 3,6 z"
       id="path456"
       inkscape:connector-curvature="0"
       style="fill:#de8350;fill-opacity:1;stroke:#de8350;stroke-width:0.75;stroke-linejoin:round" /><path
       d="m 367,335 h 2 c 13.1,-14.4 -14.6,-32.3 -33,-33 -7.7,21.9 29.1,14.9 31,33 z"
       id="path458"
       inkscape:connector-curvature="0"
       style="fill:#955433;fill-opacity:1;stroke:#955433;stroke-width:0.75;stroke-linejoin:round" /><path
       d="m 166,327 c 4.8,-3.5 -6.1,-9.1 -9,-13 -1.2,-1.3 -3.6,2.3 -6,3 2.3,4 11.4,6.5 15,10 z"
       id="path460"
       inkscape:connector-curvature="0"
       style="fill:#513629;fill-opacity:1;stroke:#513629;stroke-width:0.75;stroke-linejoin:round" /><path
       d="m 102,323 c 1.5,0.6 9.6,-2.4 4,-6 h -1 c -1.7,-0.8 -7.3,0.1 -8,3 0,2.7 7.4,0.7 5,3 z"
       id="path462"
       inkscape:connector-curvature="0"
       style="fill:#5a301c;fill-opacity:1;stroke:#5a301c;stroke-width:0.75;stroke-linejoin:round" /><path
       d="m 105,317 h 1 c 3.4,1.1 7.2,-5.3 2,-6 -8.8,-4.8 -8.9,3.1 -3,6 z"
       id="path464"
       inkscape:connector-curvature="0"
       style="fill:#603520;fill-opacity:1;stroke:#603520;stroke-width:0.75;stroke-linejoin:round" /><path
       d="m 1,311 c 1.7,-1 6.1,-2 5,-3 1.7,-5.1 -5.1,-1.5 -5,3 z"
       id="path466"
       inkscape:connector-curvature="0"
       style="fill:#000000;fill-opacity:1;stroke:#000000;stroke-width:0.75;stroke-linejoin:round" /></g><g
     id="g671"
     transform="translate(69.369057,25.451263)"><path
       sodipodi:nodetypes="ccccccccccccccccccccccccccccccccccccccccccccccccccccccccccccccccccccccccccccccccccccccccccccccccccccccccccccccccccccccccccccccccccccccccccccccccccccccccccccccccccccccccccccccccccccccccccccccccccccccccccccccccccccccccccccccccccccccccccccccccccccccccccccccccccccccccccccccccccccccccccccccccccccccccccccccccccccccccccccccccccccccccccccccccccccccccccccccccccccccccccccccccccccccccccccccccccccccccccccccccccccccccccccccccccccccccccccccccccccccccccccccccccccccccccccccccccccccccccccccccccccccccccccccccccccccccccccccccccccccccccccccccccccccccccccccccccccccccccccccccccccccccccccccccccccccccccccccccccccccccccccccccccccccccccccccccccccccccccccccccccccccccccccccccccccccccccccccccccccccccccccccccccccccccccccccccccccccccccccccccccccccccccccccccascaccacccccccccccccccccccccccccccccccccccccccccccccccccccccccccc"
       d="m 1007.1882,1378.8191 h -94 c -31.4,-0.5 -66.2,0.9 -93,-2 h 94 c 30.9,1 65.7,-0.4 93,2 m -205,0 h -96 c -34.8,2.3 -56.1,-8.4 -75,-21 -17.7,-14.8 -37.9,-26.6 -50,-47 -10.3,-5.2 -48.7,-54.9 -18,-24 19.9,12.6 30.7,33.8 48,48 17.6,14.9 37.2,27.3 60,36 20.7,11.8 60.8,3.7 90,6 37.5,6 58.1,-5.4 66,-30 8.4,-24 3.3,-60.7 0,-87 -0.7,-28.8 6.4,-65.3 -4,-88 -7,-25.5 -28.3,-36.2 -36,-60 -10,-22.5 -24.8,-39.7 -21,-75 -6.3,-26.2 -25.6,-38.90004 -30,-66.00004 -15.6,-16.9 -11.3,-53.2 -24,-72 -1.3,-27.2 -20.6,-40.6 -20,-74 -11.8,-19.7 -21,-42.5 -31,-64 -18.4,-17.7 8.5,-55.99997 -11,-76.99997 -7.3,-24.2 -28.8,-34.7 -49,-46 -21.7,-10.8 -45.2,-19.3 -68,-29 -27.7,-3.5 -48.4,-39.4 -10,-10 24.2,7.3 44.7,18.8 69,27 18.2,13.3 44.1,19.4 55,40 12.2,17.4 22.6,48.9 12,74.99997 13.6,18.9 18.2,46.3 32,65 13,18.5 7,56.5 24,72 0.6,25.1 17.4,44.8 18,75 9.8,21.7 16.5,47 33,63.00004 10.7,20.8 0.9,62.6 19,76 5.3,27.2 23.8,40.7 36,60 14.3,17.8 14.1,52.3 14,80 -6.5,26.6 5.6,54.5 3,87 -1.7,30.8 -10.9,53.6 -36,60 m -149,0 h -61 -60 -60 -60 -62 -60 -60 -60 -61 -60 -60 -60 -62 -60 -60 -60 -61 -60 -60 c -16.38543,-5.0179 -10.45936,12.957 -9,-15 1.4,-18.1 -0.1,-39.6 7,-53 3.3,-16.2 4.3,-35.2 9,-51 1.4,-18.1 4.3,-35.2 11,-49 5.8,-13.7 10.2,-29.3 18,-42 5,-14.8 11.3,-31.3 15,-47 0,-19 5.7,-33.3 9,-51 3.2,-15.8 0.9,-38.1 6,-54 4.6,-14.4 11.4,-27.60004 18,-42.00004 11.4,-8.8 13.3,-28.8 10,-48 1.8,-17.7 9.6,-29.9 18,-42 10.4,-9.1 20,-19.6 27,-33 4.9,-14.6 7.4,-32.1 15,-45 6.3,-13.5 16.7,-25.9 23,-39 5,-12.5 23.6,-18.6 16,-39.99997 -3,-15.4 -8.1,-35.2 -4,-53 2.5,-16.5 7.2,-31.8 19,-40 13.7,-6.6 28,-15.1 42,-20 12.8,-6.7 29.7,-9.8 44,-16 16.3,-3.2 30.3,-9.2 48,-12 16.9,-4.7 39.1,1.5 55,-2 15,-4.8 28.5,-14.2 42,-19 14.6,-5.4 29.6,-10.4 45,-15 13.8,-6.2 29.8,-10.2 41,-20 8.5,-10.5 20.5,-18.5 31,-28 9.8,-10.5 22.1,-21 30,-32 11.3,2.9 26.1,-37 21,-12 -8.5,12 -16.6,23.9 -19,41 -0.7,20.2 0.8,38.7 4,55 2.1,18.7 6.9,36.7 11,51 5.3,14.7 9.2,30.8 13,47 4.5,15.5 7.9,32.1 11,49 4.8,15.2 6.3,33.7 12,47.99997 3.4,16.6 8.2,31.8 12,48 4,16 8.2,31.8 13,47 4.1,15.9 8.3,31.7 14,46 3.9,16.1 8.1,31.9 13,47 5.3,15 8.9,34.3 14,48 2.3,17.20004 9,30.50004 13,46.00004 5.7,14.8 12.1,28.4 17,44 6.2,14.5 4,48.7 -2,13 -5,-14.8 -11.8,-30.8 -16,-45 -5.9,-14.1 -10.9,-29.1 -15,-45.00004 -5.8,-14.1 -7.7,-32.3 -14,-46 -3.8,-16.2 -8.3,-31.7 -13,-47 -4.7,-15.6 -9.5,-33.6 -14,-48 -4.9,-14.6 -7.9,-31.6 -13,-46 -4,-16.5 -8.5,-32 -12,-48 -6.2,-14.3 -7,-33.49997 -12,-47.99997 -3.5,-17.3 -7.9,-35.7 -11,-51 -3.1,-16.9 -8.8,-31.2 -12,-48 -5.8,-14.2 -9.7,-30.3 -13,-47 -3.6,-16.4 -5.6,-34.4 -6,-54 6.8,-35.8 -12.3,-21.1 -21,-10 -9.5,11 -21.5,19 -32,28 -8.8,11.7 -26.2,14.3 -39,21 -15.4,5.1 -30.4,10.1 -45,15 -15.1,5.7 -29.3,14.4 -42,20 -15.9,4.1 -41.1,-1.1 -57,3 -17.8,2.2 -33.1,6.9 -48,12 -16,4 -30.3,9.7 -45,15 -13.9,6.4 -29.8,13.3 -40,21 -12.4,8.1 -17.8,22.7 -18,42 -1.5,14.7 0.8,37.6 6,51 2,22.49997 -15.1,25.39997 -20,39.99997 -7.1,13.4 -16.6,23.9 -22,38 -8.8,11.7 -8.7,31.8 -15,45 -7.6,12.9 -17.1,23.4 -27,33 -8.3,12.2 -16,24.5 -17,43 7.4,21.9 -5.1,37.2 -10,48 -7.9,13.1 -14.8,26.20004 -18,42.00004 -5,16 -3.4,37.6 -8,53 -3.1,16.9 -7,33 -9,51 -2.7,17.6 -10.3,32.8 -15,46 -6.7,13.8 -11.9,28.6 -18,42 -5.8,14.7 -7.9,32.6 -10,50 -3.9,16.6 -5.7,34.8 -9,51 -3.6,12.6 -9.9,42.9 0,52 -1.5,3.9 13.5,15.6 39,9 h 60 60 61 60 c 22.1,1.4 37.1,-2 57,0 h 60 62 60 60 60 61 60 60 60 62 60 c 26.4,4.7 33.4,-2.3 42,-15 2.4,-16.1 -3,-35.8 -2,-55 -5,-22.3 -2.5,-41.6 5,-11 1.2,18.8 1.9,38.1 3,57 -4.6,24.6 12.4,27.6 36,24 18.8,1.2 40.7,-0.7 58,2 m -864,-12 c -1,-13.6 5.8,-28.7 8,-44 2.6,-14.4 5.5,-29.5 7,-46 3.8,16.4 -2.8,31.7 -4,46 -3.2,15.8 -6.4,30.6 -11,44 m 35,-11 c -3.5,-25.4 -9.6,-52.1 -6,-81 1.2,27.7 5.4,56.4 6,81 m 480,-97 c -1.4,-5.4 -0.7,-29.2 1,-30 6.6,7.8 0.7,24 -1,30 m -5,-12 c -6.6,-5.7 -1.3,-23.9 0,-29 4.6,4.2 -0.8,22.7 0,29 m 3,-54 c -0.4,-2.4 1.7,-20.2 3,-21 7.5,5.8 -1,15.7 -3,21 m -3,-11 c -9.5,2.4 -0.9,-15.7 0,-19 6.8,-6.9 -3,14.4 0,19 m -24,-19 c -19.8,-15.5 20.4,-50.4 -3,-9 -4.8,8.8 1.4,7.2 5,1 4.3,-33.5 12.1,-2.1 -2,8 m 189,-8 c -25.4,-1.5 -30.3,-26.1 -49,-33 -27,-0.5 -28.3,-28.6 -27,-55 -4.5,-23.4 -5.2,-52.2 -9,-74.00004 -11.2,-15.8 -31.4,-22.6 -45,-36 -17.1,-10.3 -30,-26.9 -42,-40 -12.5,-15 -29.4,-25.1 -42,-39 -12.8,-15.1 -32.8,-24.7 -45,-38 -2,7.1 23.2,24.8 37,32 15.5,11.9 6.3,50.6 9,73 -0.8,22.4 0.1,56.00004 2,78.00004 v 83 c -8.7,-13.9 -5.7,-47 -6,-72 0.5,-28.5 -3.6,-53.90004 -2,-81.00004 -2.3,-24.7 5.3,-59.3 -7,-74 -14.7,-12.7 -35.5,-21.4 -42,-40 -19,-4.4 -3.2,-69 -3,-36 0.4,20.6 20.7,34.5 33,46 17.4,10 30.4,26.5 45,38 12.9,14 28.4,28 40,42 14.1,12.9 29.1,24.9 47,34 17.8,12.6 30.3,20.9 30,50.00004 2.2,24.3 5,48.5 7,73 -7.4,35.3 33.1,24.4 39,44 10.3,19.2 36.8,24.3 44,-2 10.4,-16 19.9,-36 31,-51 9.4,-17.1 19.9,-33.6 29,-52 7.7,-19.2 21.2,-35.20004 22,-60.00004 -3.4,-23.6 -20,-34 -33,-48 -13.4,-14 -28.9,-28 -40,-42 -13.4,-14.1 -17.5,-37 -27,-54 -8.2,-19.7 -22.8,-34.6 -30,-53 -10,-17 -24.2,-29.79997 -35,-45.99997 -18.3,-9.1 -34.5,-22.4 -45,-38 -10.5,-20.2 -21.7,-33.3 -40,-33 -48,-17.2 16.1,2.5 16,-3 -12,-12.9 -45.8,-13 -64,-7 -28.6,10 -39.3,23.3 -5,6 2.7,-1.4 15.6,-6.9 11,1 -26.8,5.9 -21.6,15.7 6,12 29.3,-1.8 41.5,15.4 60,23 -10.2,4.6 -30.6,-17.9 -53,-17 -26.5,-6.6 -53,16.6 -54,-1 -20,7.4 -38.7,18.2 -57,25 -19.1,-7.8 -22.3,-34.2 -34,-48 -7,-15.9 -25.9,-34.9 -23,-49 9.5,17.9 19.9,37.1 30,52 10.5,12.1 12.5,52.1 36,33 19.5,-7.4 37,-19.5 54,-28 18.7,-8.3 31.4,-22.6 62,-20 2.6,2.7 15,2.3 16,2 -23.7,-11.7 21.7,3.1 21,10 11.4,16.5 20.3,37.1 32,51 25.4,31.6 -10.3,-15.5 3,-34 3.4,-23.1 3.6,-49.9 7,-74 3.3,-10.8 -12.9,-62.1 5,-24 6.8,15.7 -3.5,47.8 -3,69 -0.9,25.4 -6.4,59.4 6,74 15.8,10.6 27.4,26.1 40,39.99997 10.7,17.2 20.5,37 32,51 9.8,17.2 17.8,36.2 25,56 6.4,21 25.1,31.9 36,46 l 41,41 c 14.4,13.1 8.8,52.1 0,64.00004 -8.7,19.3 -18.1,36.9 -27,54 -11,17.4 -21.9,36 -32,51 -9.3,18.2 -19.4,35.1 -33,48 m -163,-18 c -1.5,-6.8 1.9,-23.3 4,-30 4.6,11.1 -0.9,25.6 -4,30 m -3,-1 c -7.4,-9 -3.6,-24.9 1,-35 3.7,1.5 -4,22.4 -1,35 m 150,-3 c -9.1,-18.8 -35.8,-21.7 -45,-38 15.8,11.7 41.3,15.6 45,38 m 28,-9 c 18.4,-23.2 -4.7,-45.4 -9,-50 30.1,6.9 22.2,30.8 9,50 m -6,0 c -20.6,-9.7 -16,-23.2 -7,-44 -6.3,20.4 4.4,33.9 7,44 m -145,-15 c -4,-12.8 -0.2,-28.3 1,-41 2.5,11.8 2.4,31.6 -1,41 m -47,-5 c -6.6,-5 -13.9,-13 -12,-25 4.1,8.1 10,17.4 12,25 m 41,-4 c -5.1,-8.2 -2.8,-24.3 1,-30 2.2,2.6 -1.6,23.2 -1,30 m -38,-2 c -1.6,-7.3 -12.2,-15.8 -10,-21 4.6,5.2 15,13.5 10,21 m 20,-19 c -1,-9.1 -1,-28.1 0,-33 8.1,7.3 2.6,24.6 0,33 m -3,0 c -6.6,-5.6 -9.1,-24.3 -3,-33 3.8,-1.2 -2,25.7 3,33 m 136,-15 c -5.6,-21.4 -19.7,-34.3 -30,-51 -23.2,-32.50004 -1,-13.60004 9,6 13.8,15.9 23.1,34.1 30,3 7.7,-19.3 14.4,-39.60004 23,-59.00004 5.7,-20.3 18.6,-34.4 21,-60 7.8,-18.1 -0.4,35.7 -9,42 -8.5,19.5 -16.2,38.8 -23,59.00004 -7.1,19.9 -18.6,35.4 -21,60 m -111,-14 c -2.1,-5.9 -2.1,-27.3 0,-30 5.8,7.9 2.1,22 0,30 m -51,0 c -6.1,-7.8 -9.5,-24.6 -6,-39 0.2,14.8 7.3,27.9 6,39 m 47,-1 c -8.7,-7.3 -4.4,-31.4 -2,-39 5.1,7.3 -3.1,30.3 2,39 m -42,-5 c -1,-9.8 -9.3,-28 -6,-31 3.5,7.7 12.1,24.5 6,31 m 18,-22 c -6.8,-4 -7.7,-19.8 -5,-29.00004 5.8,0.7 0.6,22.60004 5,29.00004 m 334,-9 c -16.8,-13.20004 -31.8,-28.20004 -45,-45.00004 19.3,10.7 28.5,31.5 45,45.00004 m -330,-2 c -5.8,-3.9 -1.4,-25.10004 -3,-30.00004 5.1,6 5.8,21.80004 3,30.00004 m -64,0 c -3.5,-10.90004 2.9,-33.30004 6,-48.00004 1.8,12.2 -2.9,34.9 -6,48.00004 m 37,-19.00004 c -2,-8.9 -2.3,-35 0,-38 6,9.5 2.4,30.7 0,38 m -4,0 c -8.1,-5.7 -4.6,-29.2 -3,-39 5.5,3.3 0.8,27.3 3,39 m 28,-30 c -8.5,-7.7 -11.1,-24.2 -15,-35 6.9,9.8 10.5,25.3 15,35 m 6,-2 c -6.2,-6.3 -8,-17.5 -12,-27 6.6,6.9 9.2,17.3 12,27 m -33,-27 c -16.7,4.5 -8.2,-57.2 -7,-31 -13.7,13.5 31.2,20.7 7,31 m 11,-13 c -6.3,-4.3 -17.8,-6.2 -17,-15 4,6.1 15.4,8.1 17,15 m 112,-11 c -10.2,-5.6 -23.4,-11.4 -31,-18 12.2,4 24,11.3 31,18 m -79,-19 c -11.7,-1 -19.7,-8.3 -26,-12 9.9,2.3 19.1,8.3 26,12 m -32,-60 c -11,-7 -23.4,-12.6 -36,-18 -11.3,-6.7 -23.5,-12.5 -36,-18 -15.6,-2.4 -19.5,-16.5 -25,-29 -8.3,-9.7 -5.6,-34.99997 4,-38.99997 -0.1,1.8 -10,25.69997 3,32.99997 9.2,9.3 17.1,19.5 29,26 10.1,7.4 20.4,15.1 33,21 9,7.7 23,13.7 28,24 m 11,-50 c -19.5,-13.5 -35.9,-30.1 -57,-41.99997 -19.8,-6.1 -58.5,-21.3 -33,-49 -18.1,21.2 17,40.9 37,46 18.8,14.19997 39.8,27.49997 53,44.99997 m -3,-69.99997 c -13.6,-7.2 -27.7,-15.9 -38,-24 14.5,5.8 28.9,14.2 38,24 m 36,-41 c -8.8,1.8 -10.8,-3.2 -17,-4 7.8,-2.2 6.7,-5.9 -16,-14 -2,-7.7 40.3,11.7 33,18 m -23,-49 c -28.7,2.2 -18.5,-2 -34,-14 -10.9,-8.1 -17.8,-20.2 -30,-27 -10.3,-8.7 -18.4,-19.6 -30,-27 -10,-8.3 -19.5,-19.7 -29,-27 l -28,-28 c -6.9,-11.9 -19.1,-20.6 -21,-35 -4.5,-28.8 2.4,-12.7 6,6 6.7,11.6 15.5,23.7 24,32 l 28,28 c 9.8,9.7 21.7,16.8 30,27 8.5,11 22,16.5 30,27 9.5,9.3 19,20.7 29,27 11.4,11.2 30.2,-2.5 43,-4 15.7,-2.6 29.6,-9.6 39,-17 14.9,-6.5 -5.8,21.8 -19,17 -10.1,6.8 -38.3,4.7 -38,15 m 209,-35 c -6.5,-10.6 9,-22.4 15,-28 2,7.6 -9.9,22.9 -15,28 m 7,-1 c 0.6,-8.7 14.6,-22.3 18,-36 6.9,-13 2.6,-39 5,-48 6.1,12.7 8.5,35.7 0,48 -4.2,15.6 -15.3,26.3 -23,36 m -70,-15 c -2.9,-9.5 21.3,-11.2 24,-24 2.9,10.4 -16.8,16.7 -24,24 m -81,-3 c -2.1,-21.4 -15,-31.5 -17,-53 -13,-36 4.1,1.5 0,-31 11.3,-22.4 -5,25.5 5,37 8.3,13.3 12.4,21.9 12,47 m 78,-5 c -2.4,-6.5 19.4,-11.9 22,-21 3.7,9.3 -17,15.9 -22,21 m 46,-4 c -3.4,-10.5 0.7,-24 2,-35 -0.1,8 -0.3,25.4 -2,35 m -124,-30 c -5.4,-8.1 -12.5,-35.3 -5,-45 -3,16.8 10.5,21.6 5,45 m 180,-21 c -1,-19.1 -17.8,-27 -17,-44 5.3,14.6 20.9,24.9 17,44 m -27,-23 c -5.3,-7.2 -12.5,-22.1 -8,-33 -1.4,10.6 4.7,24.9 8,33 m -182,-4 c -0.3,-10.6 -3.1,-30.6 0,-45 -1.2,17.5 5.9,31.3 0,45 m 137,-11 c 2.6,-15.3 10.6,-34.7 19,-49 6.2,-15.8 23.1,-28 32,-36 -6.3,18.2 -26,22.5 -27,45 -7.8,5.9 -15.7,30.4 -24,40 m -68,-6 c 0.7,-10.6 14,-21.2 17,-33 2.9,17.8 -10.6,23.9 -17,33 m -37,0 c -4.1,-21.4 3.1,-43.2 10,-57 -2.5,16.3 -12.3,35.5 -10,57 m -233,-9 c -1,-12 16,-40.2 3,-60 -9.7,-15.8 -18.2,-33.3 -21,-57 -0.9,-24.6 -0.5,-51 -4,-73 -6.4,-17.5 -9.1,-49.1 -3,-68 0.6,-24.3 8.6,-42.4 13,-64 5,-20.4 14.3,-38.7 21,-56 10.7,-14.8 31.3,-20.2 44,-34 8.9,-16 26.3,-26.2 40,-36 13.5,-12.5 40.6,-11.4 62,-17 19.8,-7.4 52.3,0.4 57,9 -16.9,-9.6 -44.7,-11.3 -62,-1 -25,12.6 -31.7,0.1 -51,13 -16.4,10.1 -31.8,20.7 -37,41 -12.8,13 -17.5,36 -21,55 -10.6,44 -6.3,7.7 0,-15 3.5,-20.9 11.8,-40.1 24,-52 -10.7,10.9 -30,20.7 -42,33 -3.7,1.7 -9,12.3 -3,7 -8.5,32.4 -8.2,12.6 -9,14 -10.4,16.1 -16.8,35.8 -21,57 -10.6,41.3 6.8,-12.7 13,-18 6.5,-19.5 13.8,-38.2 23,-56 22.1,-28 15.6,-7.6 -2,6 -6.9,19.5 -5.9,46.6 -13,65 -10.6,15.3 -18.3,35.2 -24,52 -6.3,18.2 -11.2,48.2 -3,60 0.3,-22.2 2.4,-52.5 13,-58 12.5,-16.2 -3.5,10.8 -7,22 -5.5,19.2 1.3,52.7 -3,68 2,7.2 -1.1,75.6 6,36 1.5,-4.1 1.6,-13.6 3,-17 3.9,-33.9 2.9,12.8 0,21 -6.5,26.3 6.6,43.9 13,62 5.8,19.8 -2.1,48 -9,61 m 213,-1 c -6.8,-27.7 3.8,-48.5 8,-74 4.4,24.7 -14.3,41 -8,74 m 177,-2 c 4.3,-12.4 10.8,-34.1 23,-42 10,-14.4 -9.3,-33.1 -20,-31 22.9,-3.6 33.9,19.3 26,36 -14.5,8 -18.7,25.8 -29,37 m -127,-6 c -3.2,-13.9 4.9,-29.8 6,-43 2.4,14.7 -5.1,31.1 -6,43 m -56,-1 c -2.5,-18.7 -3.9,-48.6 2,-65 -3,-26.4 5.1,-44.9 10,-63 0.4,16.7 -11.1,36.1 -6,60 -8.2,16.6 -6,45.5 -6,68 m 90,-9 c -1.8,-10 6.1,-20.5 8,-32 2.6,11.8 -6.7,21 -8,32 m -69,-15 c -3.6,-9.6 3.8,-19 8,-26 1,8 -8,15.7 -8,26 m 132,-21 c -1,-7 9.1,-13.6 12,-21 3,9 -10.6,12.1 -12,21 m 24,-20 c -12.4,-2.7 -1.5,-42.9 8,-54 4.4,1.9 -17.8,38.6 -8,54 m -156,0 c 1,-14.5 6.1,-34.9 5,-51 4,15.6 0.9,40.4 -5,51 m -207,-1 c 8.7,-10.2 20.6,-25.7 21,-48 1.8,20.7 -4.6,41.7 -21,48 m 375,-5 c -27.4,-6.8 52.2,-15 47,-15 2.8,-3.9 8.7,-16 6,-4 -2.2,22.2 -34.7,13.8 -53,19 m -232,-3 c -19.6,0.3 -31.5,-9.7 -42,-16 -10.6,-8.8 -17.8,-20.7 -21,-36 -4.5,-8.4 -12.1,-37.9 -5,-41 1.1,18.4 5.7,32.8 11,47 5.8,13 18,22.6 28,30 9.4,5.7 30.1,18.1 39,3 3.9,-4.4 10.2,-49.8 9,-24 0.7,19.7 -5.6,32.4 -19,37 m -120,-10 c -0.6,-9.4 2.8,-29.9 6,-36 2.1,7.3 -3.2,26.5 -6,36 m 198,-15 c -4.8,-7.2 0.3,-19.6 0,-26 2.1,6 1.4,22.8 0,26 m -69,-21 c -8,-7.6 -4.2,-42.1 -20,-29 -14.5,18.1 -19,11.6 -3,-1 10.9,2 28.8,-29.1 23,-14 -12,10.6 5,33.3 0,44 m -113,0 c -4.9,-7.8 -0.3,-17.7 -1,-27 4.5,7.9 0.5,18.4 1,27 m 21,-12 c -1.6,-14.5 1.8,-35.9 5,-48 5.1,-12.4 6.9,-28.6 18,-36 9.8,-7.7 21.1,-14.4 40,-14 13.9,0.9 25.9,21.9 35,2 -2.3,23.6 -21.4,10.6 -30,4 -16.7,-3.8 -31.5,3.9 -41,11 -11.3,6.7 -11.4,24.6 -19,34 -3.4,15.6 -4.1,32.9 -8,47 m 44,-2 c -9,-14.8 6.4,-28.7 15,-34 8.9,-5.4 32.1,-16 16,-27 -8,-7.7 -35.9,-12.6 -39,1 -10.5,1.1 -2.1,51.9 -9,32 -2,-20.2 1.3,-37.9 14,-42 11.6,-9.3 32.4,0.1 39,7 14.1,14.3 -4.4,26.2 -14,30 -11.2,7.6 -23.3,16.4 -22,33 m -132,-6 c 1,-13.8 -3,-42.4 3,-57 -0.1,16.6 -1.2,40.2 -3,57 m 36,-9 c -3.2,-10.4 3.3,-22.4 1,-37 4,12.2 -0.2,26.5 -1,37 m 198,-1 c -6.3,-7.2 -2.8,-25.7 0,-32 2.2,3.6 -2.5,23.3 0,32 m 21,-6 c -4.2,-9.9 1.8,-23.9 0,-35 3.6,10.9 -1.1,26 0,35 m -233,-3 c -3.9,-12.4 1.9,-28.1 2,-39 3.4,12.4 -2.4,28.1 -2,39 m 192,-2 c -7.5,-17.4 1.6,-39 8,-52 -0.9,11.2 -9.2,32 -8,52 m -204,0 c -5.5,-3.8 -2.7,-21.7 -1,-28 2.5,1.9 0.1,20.1 1,28 m 374,-1 c -4.8,-4.7 -3.3,-15.2 -3,-24 -9.5,-1.4 -70.7,7.3 -26,-5 35.2,14.1 52.3,-44.4 65,-7 -5.3,4.2 -8.4,10.1 -15,12 24.9,-28.5 -7.6,-5.8 -9,-3 -4.9,4.6 -5.9,12.7 -8,19 -3.2,11.8 -2.8,-3.6 -1,-6 5.9,-29.2 -7.8,-4.7 -3,14 m -339,-2 c -3.9,-15.5 1.7,-31.8 0,-51 -1.3,-17.6 3.5,-32.8 7,-45 1.4,14.4 -6.9,28.1 -4,47 0.8,18.5 -4.8,33 -3,49 m 328,-7 c -3,-10 -20.6,-5.4 -28,-11 11.4,1.6 26.7,-0.7 28,11 m -321,-5 c -1.8,-15.2 4.2,-34.9 5,-51 0.5,15.5 -3.2,37.4 -5,51 m 368,-7 c -0.7,-5.1 6.5,-13.7 7,-23 3.4,8.8 -2.2,19.1 -7,23 m -357,0 c -4.9,-18.4 2.2,-36.9 3,-53 2.8,17.7 -3.3,37.2 -3,53 m 142,-3 c -4.9,-12 3.8,-20.9 8,-29 1.3,9.4 -8.1,17.5 -8,29 m 36,-17 c -1.7,-8.6 3.6,-24 6,-31 2.6,10 -4.3,23.8 -6,31 m -234,0 c -1,-14.4 2.8,-36.3 8,-48 4.2,-14.1 8.1,-32 16,-42 -2.8,11.6 -9.2,30.9 -15,41 -3.7,15.6 -5.9,35.2 -9,49 m 9,-1 c -3.9,-13.2 1.9,-26.7 2,-41 2.3,12.6 -2.8,26.9 -2,41 m 366,-12 c -5.4,-2.9 10.7,-12.7 17,-5 8.9,4.1 -15.3,-2.4 -17,5 m -127,-3 c -2,-10 7.2,-22.3 10,-30 -0.5,7.9 -7.9,22.1 -10,30 m -60,0 c -2.5,-9.1 7.1,-17.1 10,-26 0.8,8.4 -8.8,16.4 -10,26 m -210,-2 c 5.8,-19.6 11.9,-42.1 21,-58 7.3,-18.6 16.1,-38.4 18,-62 -6.7,20.7 -15.5,40.5 -23,57 -10.4,16.5 -14.2,41.2 -16,63 m 73,-16 c -3.1,-26.2 10.7,-43.4 15,-66 -0.8,22.4 -13.2,41 -15,66 m 20,-11 c -3.2,-28.5 10.9,-48.2 18,-72 -3,24.3 -17.9,43.2 -18,72 m -50,-3 c -3.6,-9.4 5.2,-20.5 6,-28 3.7,9.9 -8.6,17.6 -6,28 m 246,-6 c 0,-5.6 4.7,-17.5 5,-28 3.4,9.9 -1.1,22.1 -5,28 m 26,-6 c 0.1,-4.8 5.7,-24.3 7,-37 2.7,8.6 0.4,31.5 -7,37 m -8,-18 c -2.7,-10.4 1.7,-24.5 2,-37 3.2,11.9 -2.6,24.6 -2,37 m -27,0 c -4.4,-8.3 -3.2,-25.7 -4,-36 3.5,9.6 4,25.4 4,36 m -84,-3 c -0.1,-15.3 7.4,-32.5 5,-55 -0.2,-15.7 -23.7,-28.7 -14,-39 9.7,11.3 13.9,28.1 20,43 -1.4,19.9 -7.4,36.7 -11,51 m -66,0 c -2.7,-24.7 6.7,-47.9 6,-73 5.2,27.7 -5.8,49.3 -6,73 m 128,-3 c -1.1,-17.5 -3.3,-39 -5,-52 5.5,13.7 8,34.4 5,52 m -69,-1 c -0.9,-15 5.3,-32.6 7,-50 2.8,18 -4,34.9 -7,50 m 22,-5 c 1.6,-12.9 2.8,-40.4 0,-54 6.4,13 6.4,41.7 0,54 m -168,-6 c -0.9,-23 3.7,-50.9 11,-69 -1.5,22 -8.2,48 -11,69 m 183,-1 c 2.6,-25.3 -10.2,-39.9 -13,-56 6.1,16.1 19.9,31.5 13,56 m 18,-2 c -8.4,-16.2 -5.4,-38.1 -12,-54 9.1,9.3 11.3,33.5 12,54 m -63,0 c 0.9,-9.6 -1,-27.3 5,-33 2.8,6.5 -3.9,25.7 -5,33 m -33,0 c -0.1,-13.4 10.3,-42.8 2,-54 11.6,12.2 1.6,43 -2,54 m 84,-7 c -2.6,-7.7 -3.3,-26.8 -10,-35 6.7,3.7 11.4,19.1 10,35 m 195,-5 c -15.6,-17.9 -40.5,-27 -64,-37 -5.7,-2.9 -15.5,-4.6 -21,-5 -11.3,-2.2 -4.5,-0.7 -2,-6 -39.9,1.9 8.9,-5 12,0 8.8,3.2 51.7,13.6 62,26 1.4,6.2 10.3,8.8 10,15 25.9,-15.6 29.8,-4.7 3,7 m -108,-3 c -4.7,-12.4 -0.2,-39.7 -10,-43 16.8,2.2 10.9,27.4 10,43 m -150,-1 c -1.1,-8.2 -1,-25.7 3,-33 2.5,10.8 2.4,25.7 -3,33 m -55,-2 c -0.4,-15.2 9.7,-29.7 13,-46 -1,19.9 -2.4,41 -13,46 m -45,0 c -3,-10.5 3,-25.9 6,-34 0.5,9.4 -6.6,23.9 -6,34 m 91,-3 c -2.7,-6.2 1.5,-20.3 2,-27 4,9 -2.3,21 -2,27 m 269,-1 c -9.3,-12.9 4.4,-25.9 -6,-39 4.2,-22.7 -17.2,-19.3 -27,-27 -7.3,-11.2 -24,-12.5 -38,-17 -9.8,-7.7 -21.2,-14.3 -34,-19 -13,-5.5 -29.7,-6.8 -47,-8 -31.3,6.6 7.3,-10.6 -24,0 -19.6,2.1 -27.9,-7.6 -46,-7 -5.5,-7.1 -52,3.4 -24,-6 13.6,-5.8 32.4,-1.8 45,3 12.2,-3.1 22.7,9.5 39,0 15.4,-3.9 31.2,2.6 45,6 12.6,4.9 24.6,10.9 37,16 12.9,11.5 21.5,5.2 39,9 10.3,8.2 21.3,15.2 33,21 12.9,5.6 9.8,26.7 15,39 -1.2,17.8 -5.1,-1.1 -7,29 m -330,-2 c 4.8,-29.2 -9,-59.8 7,-76 -1.4,42.3 0,38.4 -7,76 m 210,-4 c -1,-8.7 -4.9,-20.6 -5,-26 5.5,6.4 7.2,16.1 5,26 m -117,0 c -0.3,-16.7 -14.2,-24.8 -11,-41 1.9,14.8 14.6,25.2 11,41 m -9,-5 c -6.6,-14.7 -14.2,-30.9 -17,-48 11.7,10.1 11.7,33.9 17,48 m -96,0 c -5.6,-2.6 2.4,-17.7 3,-22 7,5.7 -2.1,18.9 -3,22 m 45,-4 c 0.9,-18.3 -8.6,-34.5 -2,-50 4.9,11.5 1.8,32.7 2,50 m -15,-8 c -5.6,-12 2.6,-24.5 3,-34 0.4,8.2 0,28.6 -3,34 m 45,-3 c -4.3,-6.7 -14.3,-16.4 -8,-25 7.4,2 3.6,18.5 8,25 m 234,-3 c -10.4,-0.7 17.6,-9.3 18,-16 6.3,-1.9 -11.9,16.6 -18,16 m -186,-4 c -0.4,-8.4 -20.7,-26.4 -9,-24 18.4,10.4 1.1,3.9 9,24 m 171,-3 c -10.4,-1.2 18,-9.4 21,-14 8.3,0.6 -16.5,12.5 -21,14 m -126,-5 c -4.8,-1.6 -20.9,-6.4 -14,-9 4.2,3.5 21.5,5.6 14,9 m -171,-1 c -5.3,-21.6 5.5,-36.3 16,-47 -6.4,10.9 -14.8,28 -16,47 m 31,-2 c -4,-30.8 23.8,-37.8 32,-61 -1.2,26.6 -31.4,31.2 -32,61 m 216,-3 c -9.9,-3.1 21.3,-10.1 18,-22 9.8,3.4 -11,20.8 -18,22 m 93,-6 c 1.2,-15.7 -23.9,-17.1 -33,-25 0.7,14.3 31.9,9.7 33,25 m -144,0 c -31.7,-1.4 23.7,-5 26,-13 23.6,-5.6 -16.3,13.4 -26,13 m -171,0 c -4.4,-16.8 6.9,-30.3 9,-43 1.4,14.3 -10.8,26.9 -9,43 m -73,0 c -2.1,-5.8 4.5,-16.1 18,-19 7.4,0.3 -18.8,11.7 -18,19 m 280,-1 c -10.9,-0.8 15.5,-7 18,-12 8.6,-1.5 -10.2,12.3 -18,12 m -51,-3 c -4.3,-1.9 27.6,-17.3 35,-29 3,1.6 -19.6,26.3 -35,29 m -22,-2 c 4.7,-9.4 27.8,-28.9 39,-43 -14.9,17.1 -19,35 -39,43 m 22,-3 c 2.1,-7.1 19.9,-19.5 26,-30 0,10.7 -17.8,23.1 -26,30 m -49,-3 c -1.6,-1.5 23.1,-19.2 28,-30 4.3,5.7 -17.7,26.1 -28,30 m -185,-1 c -1.8,-6.9 21.3,-11.1 30,-14 0.6,6.2 -24.8,8.1 -30,14 m 165,-2 c -57.2,2.9 3,-4.1 9,-16 29.9,-29.6 2.8,10.4 -9,16 m -43,0 c -8.2,3.6 41.6,-48 19,-21 -35.3,36.3 17.2,-7.3 17,-9 -3.9,5.1 -6.1,10.9 -11,14 -28.3,21.2 12.8,-0.3 15,-11 11.6,-9.1 -19.4,33.4 -40,27 m 87,-1 c 0.2,-5.2 14.3,-16.3 19,-26 -0.1,6.3 -9.6,22 -19,26 m -23,-14 c 0.6,-6 11.7,-12.5 17,-19 -1.1,6.5 -12.2,13 -17,19 m -93,-6 c -3.5,-7.1 7.4,-14.4 9,-19 1.1,5.1 -7.9,14.4 -9,19 z"
       id="path469"
       inkscape:connector-curvature="0"
       style="fill:#230000;fill-opacity:1;fill-rule:evenodd;stroke:none" /></g></svg>